<?xml version="1.0" standalone="no"?>
<!DOCTYPE svg PUBLIC "-//W3C//DTD SVG 20010904//EN"
 "http://www.w3.org/TR/2001/REC-SVG-20010904/DTD/svg10.dtd">
<svg version="1.0" xmlns="http://www.w3.org/2000/svg"
 width="700.000000pt" height="700.000000pt" viewBox="0 0 700.000000 700.000000"
 preserveAspectRatio="xMidYMid meet">
<metadata>
Created by potrace 1.14, written by Peter Selinger 2001-2017
</metadata>
<g transform="translate(0.000000,700.000000) scale(0.100000,-0.100000)"
fill="#000000" stroke="none">
<path d="M485 6978 c-131 -68 -298 -255 -388 -433 -30 -60 -76 -203 -85 -265
-4 -25 -7 -103 -7 -175 1 -173 11 -249 52 -385 46 -155 108 -260 262 -444 42
-50 380 -394 751 -765 371 -370 682 -685 692 -699 9 -13 14 -36 12 -49 -3 -14
-47 -75 -98 -136 -295 -353 -461 -663 -502 -937 -3 -19 -7 -46 -10 -60 -6 -33
-6 -188 0 -198 2 -4 7 -25 10 -47 14 -90 86 -272 191 -480 117 -233 165 -341
185 -415 16 -60 14 -151 -5 -218 -48 -164 -172 -217 -372 -157 -38 11 -58 13
-78 5 -25 -10 -27 -14 -22 -51 19 -146 208 -223 542 -223 185 0 382 27 520 71
168 52 355 202 428 341 80 151 80 315 0 501 -71 165 -152 290 -362 551 -68 85
-131 166 -140 180 -8 14 -18 27 -22 30 -3 3 -30 41 -58 85 -70 106 -155 284
-176 365 -37 143 -15 287 70 465 51 106 84 144 118 138 14 -3 149 -130 336
-317 l311 -312 -41 -94 c-35 -81 -91 -229 -104 -280 -90 -329 -76 -383 272
-1060 122 -238 168 -365 159 -439 -9 -71 -32 -118 -85 -171 -80 -80 -236 -119
-337 -84 -44 15 -90 18 -98 6 -13 -22 -13 -66 -1 -96 44 -104 246 -165 560
-169 132 -1 350 9 378 18 6 2 31 6 54 9 112 14 269 64 351 112 60 36 145 126
181 194 78 146 82 327 10 477 -28 59 -105 176 -173 263 -111 142 -377 455
-486 570 -118 126 -214 255 -240 325 -14 37 949 -920 1051 -1045 39 -47 91
-126 116 -178 40 -80 47 -101 47 -155 0 -55 -5 -72 -46 -149 -49 -93 -53 -127
-15 -153 65 -45 185 25 324 190 116 139 194 287 222 425 6 30 14 66 17 80 8
37 7 218 -1 291 -28 257 -104 426 -289 647 -109 129 -100 120 -609 635 -260
263 -476 485 -480 493 -4 8 -2 24 5 36 7 13 11 28 10 33 -2 6 77 -71 174 -170
97 -99 370 -377 608 -618 237 -242 483 -492 547 -558 211 -217 979 -997 1277
-1298 162 -163 321 -332 355 -376 85 -112 137 -227 138 -303 1 -71 -15 -106
-82 -180 -75 -82 -77 -154 -5 -168 62 -11 154 44 277 166 154 153 245 302 291
480 30 115 31 368 3 492 -2 13 -7 34 -9 48 -5 36 -51 167 -76 220 -27 59 -33
68 -113 178 -94 129 -163 206 -516 568 -86 88 -264 272 -396 408 -132 137
-276 286 -320 331 -44 45 -190 196 -325 335 -447 461 -414 422 -399 473 7 25
238 323 316 407 18 19 33 38 33 42 0 4 6 13 13 20 23 24 209 252 236 290 27
38 68 68 94 68 14 0 109 -93 159 -155 34 -42 118 -171 118 -181 1 -13 43 -59
72 -78 47 -30 135 -19 203 27 36 24 102 91 131 133 74 104 114 254 119 439 3
147 -6 229 -37 330 -57 185 -164 338 -333 479 -73 61 -80 66 -136 106 -19 13
-52 40 -74 60 -191 170 -261 300 -206 384 25 37 15 77 -22 91 -52 18 -164 -29
-251 -105 -178 -155 -290 -334 -330 -526 -28 -133 -12 -347 33 -449 32 -72
119 -181 218 -274 82 -76 96 -94 95 -120 0 -24 -61 -105 -302 -405 -165 -206
-307 -379 -315 -386 -8 -6 -27 -13 -42 -15 -25 -3 -59 28 -305 273 -153 152
-278 279 -278 282 0 13 57 68 77 74 17 6 33 -2 68 -35 65 -60 157 -176 206
-262 72 -123 118 -151 210 -127 154 41 288 228 326 455 2 11 6 78 9 148 10
188 -17 328 -89 472 -86 173 -181 274 -457 483 -69 52 -195 188 -223 239 -35
66 -40 122 -16 171 48 93 -36 125 -162 61 -121 -60 -298 -250 -368 -394 -65
-134 -89 -242 -86 -391 3 -109 11 -163 36 -233 36 -105 138 -233 277 -349 58
-49 68 -79 38 -116 l-21 -26 -323 322 c-279 280 -431 449 -432 482 0 5 -6 17
-14 25 -8 9 -25 49 -39 89 -36 107 -31 136 47 266 13 21 22 46 21 55 -2 9 -4
22 -4 29 -2 20 -40 52 -63 52 -44 0 -124 -47 -189 -111 -149 -144 -251 -311
-301 -496 -32 -120 -31 -407 3 -552 18 -75 59 -192 89 -251 24 -48 131 -206
149 -220 3 -3 24 -27 46 -55 33 -41 178 -194 353 -372 32 -32 33 -35 17 -53
-9 -10 -24 -16 -33 -13 -10 2 -110 97 -224 211 -113 114 -664 664 -1225 1222
-560 558 -1042 1044 -1071 1079 -106 128 -174 272 -167 356 4 47 32 101 87
164 30 34 38 52 38 82 0 74 -57 98 -135 57z"/>
</g>
</svg>
