<?xml version="1.0" encoding="UTF-8" standalone="no"?>
<!-- Created with Inkscape (http://www.inkscape.org/) -->

<svg
   width="292.13834"
   height="74.999977"
   viewBox="0 0 292.13834 74.999977"
   version="1.1"
   id="svg5"
   inkscape:version="1.2.2 (b0a8486541, 2022-12-01)"
   sodipodi:docname="ask-life_foundation_logo (crown).svg"
   xml:space="preserve"
   xmlns:inkscape="http://www.inkscape.org/namespaces/inkscape"
   xmlns:sodipodi="http://sodipodi.sourceforge.net/DTD/sodipodi-0.dtd"
   xmlns="http://www.w3.org/2000/svg"
   xmlns:svg="http://www.w3.org/2000/svg"><sodipodi:namedview
     id="namedview7"
     pagecolor="#ffffff"
     bordercolor="#111111"
     borderopacity="1"
     inkscape:showpageshadow="0"
     inkscape:pageopacity="0"
     inkscape:pagecheckerboard="1"
     inkscape:deskcolor="#d1d1d1"
     inkscape:document-units="mm"
     showgrid="false"
     inkscape:zoom="2"
     inkscape:cx="134.75"
     inkscape:cy="60.5"
     inkscape:window-width="1366"
     inkscape:window-height="707"
     inkscape:window-x="0"
     inkscape:window-y="0"
     inkscape:window-maximized="1"
     inkscape:current-layer="layer1"><inkscape:grid
       type="xygrid"
       id="grid4085"
       originx="-0.24651656"
       originy="-4.5575199" /></sodipodi:namedview><defs
     id="defs2"><rect
       x="68.675438"
       y="63.403507"
       width="4.6374269"
       height="20.874269"
       id="rect5382" /><rect
       x="484.52213"
       y="588.17334"
       width="31.689295"
       height="22.78693"
       id="rect1552" /><rect
       x="-2.6883631"
       y="31.523062"
       width="20.65023"
       height="10.277494"
       id="rect430" /></defs><g
     inkscape:label="Layer 1"
     inkscape:groupmode="layer"
     id="layer1"
     transform="translate(-0.24651653,-4.5575199)"><text
       xml:space="preserve"
       transform="scale(0.26458333)"
       id="text428"
       style="font-style:normal;font-variant:normal;font-weight:normal;font-stretch:normal;font-size:9.83242px;font-family:'Brie Light';-inkscape-font-specification:'Brie Light, Normal';font-variant-ligatures:normal;font-variant-caps:normal;font-variant-numeric:normal;font-variant-east-asian:normal;white-space:pre;shape-inside:url(#rect430);display:inline;fill:#000000;stroke-width:15.1181" /><text
       xml:space="preserve"
       transform="scale(0.26458333)"
       id="text1550"
       style="font-style:normal;font-variant:normal;font-weight:normal;font-stretch:normal;font-size:21.2571px;font-family:'Gentium Plus';-inkscape-font-specification:'Gentium Plus, Normal';font-variant-ligatures:normal;font-variant-caps:normal;font-variant-numeric:normal;font-variant-east-asian:normal;white-space:pre;shape-inside:url(#rect1552);display:inline;fill:#000002;fill-opacity:0.992157;stroke:#000000;stroke-width:1.24346;stroke-dasharray:none;stroke-opacity:1;paint-order:markers stroke fill" /><text
       xml:space="preserve"
       transform="scale(0.26458333)"
       id="text5380"
       style="font-style:normal;font-variant:normal;font-weight:bold;font-stretch:normal;font-size:18.6667px;line-height:0;font-family:Carlito;-inkscape-font-specification:'Carlito, Bold';font-variant-ligatures:normal;font-variant-caps:normal;font-variant-numeric:normal;font-variant-east-asian:normal;white-space:pre;shape-inside:url(#rect5382);display:inline;fill:#000000;fill-opacity:0.993464;stroke:none;stroke-width:3.77953;stroke-dasharray:none;stroke-opacity:1;paint-order:markers stroke fill" /><g
       id="g1668"><g
         aria-label="ASK ♛ LIFE
FOUNDATION"
         transform="scale(1.068843,0.93559109)"
         id="text2889-8-3-5-0"
         style="font-size:29.3135px;font-family:'Galatia SIL';-inkscape-font-specification:'Galatia SIL, Normal';fill:#fffefe;stroke-width:2.14112;paint-order:markers stroke fill"><path
           d="m 96.025641,36.715591 v -0.558216 q -0.629783,-0.04294 -1.087806,-0.171758 -0.44371,-0.128819 -0.830167,-0.472337 -0.372144,-0.343518 -0.729975,-0.9733 -0.357831,-0.629782 -0.801541,-1.688961 L 85.562668,16.075911 h -0.52959 l -7.08505,16.617662 q -0.35783,0.830168 -0.687035,1.45995 -0.329204,0.629782 -0.715661,1.059179 -0.372144,0.429397 -0.844481,0.672722 -0.458023,0.229012 -1.102119,0.271951 v 0.558216 h 6.369388 v -0.558216 q -1.059179,-0.08588 -1.588768,-0.300577 -0.52959,-0.229012 -0.687035,-0.601156 -0.143133,-0.372144 0,-0.887421 0.143132,-0.515276 0.429397,-1.202311 l 1.37407,-3.220477 h 7.829338 l 1.202311,2.905586 q 0.257638,0.615469 0.443711,1.202311 0.200385,0.586843 0.128819,1.044866 -0.07157,0.458024 -0.52959,0.758602 -0.44371,0.286264 -1.488576,0.300577 v 0.558216 z M 87.910038,28.857627 H 80.96812 l 3.521056,-8.172856 z"
           id="path1670" /><path
           d="m 111.59844,31.562828 q 0,-1.245251 -0.57253,-2.333057 -0.57253,-1.087806 -1.58877,-1.86072 -0.5439,-0.400771 -1.50289,-0.987613 -0.94467,-0.586843 -2.376,-1.359757 -1.48857,-0.801541 -2.46187,-1.402697 -0.9733,-0.615469 -1.54583,-1.130745 -0.55822,-0.52959 -0.78723,-1.030553 -0.2147,-0.500963 -0.2147,-1.102119 0,-0.629782 0.27195,-1.187998 0.28627,-0.572529 0.7586,-0.987613 0.48665,-0.429397 1.13075,-0.672722 0.65841,-0.257638 1.38838,-0.257638 1.05918,0 2.00386,0.372144 0.95898,0.372144 1.70327,1.116432 0.7586,0.729975 1.24525,1.81778 0.50096,1.087806 0.6441,2.504816 h 0.55821 v -6.984857 h -0.55821 q -0.15745,0.644095 -0.40077,0.88742 -0.22902,0.243325 -0.55822,0.243325 -0.3292,0 -0.77291,-0.171759 -0.4294,-0.186072 -1.00193,-0.386457 -0.57253,-0.214699 -1.28819,-0.386457 -0.71566,-0.186072 -1.60308,-0.186072 -1.35976,0 -2.44757,0.429397 -1.07349,0.429397 -1.846403,1.159371 -0.758602,0.729975 -1.173685,1.688962 -0.400771,0.958986 -0.400771,2.032479 0,0.93036 0.243325,1.688961 0.243325,0.758601 0.88742,1.488576 0.644096,0.729975 1.789154,1.531516 1.14506,0.787228 2.94853,1.803467 1.33113,0.744288 2.24717,1.316818 0.93036,0.558216 1.50289,1.102119 0.58685,0.529589 0.84448,1.102119 0.27196,0.558216 0.27196,1.302504 0,0.658408 -0.28627,1.259564 -0.27195,0.601156 -0.80154,1.059179 -0.52959,0.44371 -1.27388,0.715662 -0.74429,0.257638 -1.66033,0.257638 -1.0735,0 -2.08973,-0.314891 -1.00193,-0.314891 -1.81779,-1.001926 -0.80154,-0.687035 -1.359752,-1.774841 -0.558216,-1.102119 -0.744289,-2.662261 H 98.37301 v 6.927604 h 0.529589 q 0.100193,-0.658409 0.314892,-0.901734 0.229011,-0.257638 0.586842,-0.257638 0.372147,0 0.873107,0.186072 0.50096,0.171759 1.17369,0.400771 0.67272,0.214698 1.5172,0.386457 0.84448,0.186072 1.87503,0.186072 1.38838,0 2.56207,-0.44371 1.17368,-0.44371 2.00385,-1.202312 0.84448,-0.772914 1.31682,-1.789154 0.47234,-1.030552 0.47234,-2.189924 z"
           id="path1672" /><path
           d="m 135.48722,36.715591 v -0.558216 q -0.65841,-0.07157 -1.3025,-0.229011 -0.62979,-0.171759 -1.27388,-0.500963 -1.31682,-0.658409 -3.1346,-2.490503 l -7.44288,-7.414254 3.07735,-3.077345 q 0.95898,-0.958987 1.60308,-1.617395 0.64409,-0.658409 1.07349,-1.087806 0.44371,-0.44371 0.72997,-0.701348 0.28627,-0.271952 0.50097,-0.44371 0.22901,-0.186072 0.45802,-0.343518 0.22901,-0.157446 0.55822,-0.357831 0.40077,-0.257638 0.72997,-0.415084 0.32921,-0.157445 0.61547,-0.243325 0.30058,-0.08588 0.57253,-0.114505 0.28627,-0.04294 0.60116,-0.04294 v -0.52959 h -7.44288 v 0.52959 h 0.47233 q 0.74429,0 1.04487,0.271951 0.30058,0.271952 0.30058,0.57253 0,0.271951 -0.1002,0.529589 -0.0859,0.243325 -0.28626,0.52959 -0.45802,0.687035 -1.78916,2.104045 -1.33113,1.41701 -3.53536,3.463802 -0.88742,0.815854 -1.4027,1.288191 -0.50096,0.458023 -0.65841,0.586843 v -6.326449 q 0,-0.644096 0.0286,-1.059179 0.0429,-0.415084 0.10019,-0.672722 0.0716,-0.271952 0.15745,-0.429397 0.10019,-0.157446 0.21469,-0.271952 0.3149,-0.314891 0.77292,-0.44371 0.45802,-0.143132 0.90173,-0.143132 h 0.70135 v -0.52959 h -8.58794 v 0.52959 h 0.70135 q 0.24332,0 0.51528,0.07157 0.27195,0.05725 0.51527,0.157446 0.25764,0.08588 0.44371,0.200385 0.20039,0.114506 0.28627,0.214698 0.20038,0.243325 0.28626,0.801541 0.10019,0.558216 0.10019,1.574456 v 13.039354 q 0,1.860721 -0.3292,2.290118 -0.60116,0.729974 -1.81778,0.729974 h -0.70135 v 0.558216 h 8.58794 v -0.558216 h -0.70135 q -0.5439,0 -1.05918,-0.186072 -0.50096,-0.186072 -0.7586,-0.543902 -0.1145,-0.171759 -0.18607,-0.357831 -0.0716,-0.200386 -0.11451,-0.472337 -0.0286,-0.271951 -0.0429,-0.615469 -0.0143,-0.357831 -0.0143,-0.844481 V 28.38529 l 0.88742,-0.873107 6.06881,6.040184 q 0.32921,0.329204 0.5439,0.572529 0.22902,0.243325 0.35784,0.443711 0.12881,0.186072 0.17175,0.343517 0.0573,0.157446 0.0286,0.314891 -0.0429,0.386458 -0.41508,0.658409 -0.35783,0.271951 -1.21663,0.271951 v 0.558216 z"
           id="path1674" /><path
           d="m 146.68684,24.081494 q -0.61849,-0.01302 -0.69661,-0.631509 0,-0.182291 0.0911,-0.345051 0.0977,-0.169271 0.27344,-0.260416 0.17578,-0.09115 0.36458,-0.09115 0.18229,0 0.35807,0.09115 0.17578,0.09115 0.26693,0.260416 0.0911,0.16276 0.0911,0.345051 -0.026,0.416665 -0.39713,0.559894 l 1.55599,3.294263 -0.33855,-4.570301 q -0.54036,0 -0.65755,-0.605467 0,-0.182292 0.0911,-0.345052 0.0977,-0.16276 0.26693,-0.253905 0.17578,-0.09115 0.3776,-0.09115 0.18229,0 0.35156,0.09115 0.17578,0.09115 0.26693,0.253905 0.0976,0.16276 0.0976,0.345052 -0.013,0.292968 -0.3125,0.514321 l 1.23047,4.86978 0.27995,-5.338529 q -0.4362,-0.195312 -0.44922,-0.507811 0,-0.182291 0.0977,-0.351561 0.0977,-0.169271 0.26692,-0.253906 0.17578,-0.08463 0.35156,-0.08463 0.18881,0 0.35808,0.08463 0.17578,0.08463 0.27343,0.253906 0.0977,0.16927 0.0977,0.351561 -0.0195,0.351562 -0.45573,0.507811 l 0.2474,5.351549 1.20442,-4.817696 q -0.29948,-0.305989 -0.29948,-0.579425 0,-0.175781 0.0911,-0.338541 0.0976,-0.169271 0.27343,-0.260416 0.17578,-0.09115 0.35157,-0.09115 0.19531,0 0.37109,0.09115 0.17578,0.09115 0.26692,0.260416 0.0977,0.16276 0.0977,0.338541 -0.0716,0.553384 -0.63151,0.65755 l -0.59896,4.518218 1.67318,-3.352856 q -0.27995,-0.221354 -0.27995,-0.501301 0,-0.182291 0.0911,-0.345051 0.0977,-0.169271 0.26692,-0.253906 0.17578,-0.09115 0.35807,-0.09115 0.19532,0 0.36459,0.09115 0.17578,0.08464 0.26692,0.253906 0.0977,0.16276 0.0977,0.345051 -0.0846,0.611977 -0.72917,0.611977 l -1.04166,3.014316 v 3.639313 h -5.60545 v -3.639313 z m 6.17186,4.316395 v -0.507811 h -4.73306 v 0.507811 z m 0,1.940099 v -0.514321 h -4.73306 v 0.514321 z"
           style="font-size:13.3333px"
           id="path1676" /><path
           d="m 183.75299,31.233624 -0.51528,-0.08588 q -0.28626,0.672722 -0.52959,1.173685 -0.24332,0.48665 -0.50096,0.873107 -0.25764,0.386458 -0.55822,0.701349 -0.28626,0.314891 -0.67272,0.644095 -0.31489,0.286265 -0.68704,0.458024 -0.35783,0.171758 -0.85879,0.271951 -0.48665,0.08588 -1.15937,0.128819 -0.65841,0.02863 -1.57446,0.02863 h -2.04679 q -0.65841,0 -1.14506,-0.07157 -0.47233,-0.07157 -0.78723,-0.329204 -0.30057,-0.257638 -0.45802,-0.758601 -0.14313,-0.500963 -0.14313,-1.359757 v -13.28268 q 0,-0.858794 0.2147,-1.359757 0.2147,-0.500963 0.60115,-0.758601 0.40077,-0.257638 0.94468,-0.329204 0.5439,-0.07157 1.20231,-0.07157 v -0.558216 h -8.7597 v 0.558216 q 0.65841,0 1.20231,0.07157 0.5439,0.07157 0.93036,0.329204 0.40077,0.257638 0.61547,0.758601 0.2147,0.500963 0.2147,1.359757 v 14.012655 q 0,0.858793 -0.2147,1.359757 -0.2147,0.500963 -0.61547,0.758601 -0.38646,0.257638 -0.93036,0.329204 -0.5439,0.07157 -1.20231,0.07157 v 0.558216 h 15.6873 z"
           id="path1678" /><path
           d="m 193.77225,36.715591 v -0.558216 h -0.72998 q -0.25764,0 -0.5439,-0.05725 -0.28626,-0.07157 -0.5439,-0.171758 -0.25764,-0.100193 -0.45803,-0.229012 -0.18607,-0.128819 -0.27195,-0.243325 -0.17176,-0.271951 -0.25764,-0.801541 -0.0859,-0.543903 -0.0859,-1.517203 V 20.097929 q 0,-0.901734 0.1002,-1.474263 0.10019,-0.572529 0.27195,-0.815854 0.60115,-0.729975 1.78915,-0.729975 h 0.72998 v -0.52959 h -8.64519 v 0.52959 h 0.72997 q 0.51528,0 1.01624,0.200385 0.51528,0.200385 0.80154,0.558216 0.11451,0.128819 0.17176,0.314891 0.0716,0.171759 0.10019,0.443711 0.0429,0.257638 0.0429,0.629782 0.0143,0.357831 0.0143,0.873107 v 13.039354 q 0,1.846407 -0.35783,2.290118 -0.30057,0.372144 -0.72997,0.558216 -0.4294,0.171758 -1.05918,0.171758 h -0.72997 v 0.558216 z"
           id="path1680" /><path
           d="m 210.23247,20.94241 -0.2147,-4.394163 H 195.0175 v 0.52959 h 0.72998 q 0.48665,0 0.94467,0.186072 0.47234,0.171759 0.78723,0.48665 0.2147,0.214698 0.31489,0.744288 0.10019,0.515276 0.10019,1.603082 v 13.039354 q 0,1.817781 -0.35783,2.290118 -0.60115,0.729974 -1.78915,0.729974 h -0.72998 v 0.558216 h 8.6452 v -0.558216 h -0.72998 q -0.52959,0 -1.04486,-0.186072 -0.50097,-0.200385 -0.80155,-0.572529 -0.22901,-0.229012 -0.28626,-0.758601 -0.0429,-0.52959 -0.0429,-1.50289 v -6.326448 h 3.66419 q 0.7586,0 1.25956,0.171759 0.51528,0.171758 0.81586,0.529589 0.31489,0.357831 0.44371,0.887421 0.12882,0.529589 0.12882,1.245251 h 0.5439 v -6.827412 h -0.5439 q -0.11451,0.787228 -0.30058,1.316817 -0.17176,0.515277 -0.47234,0.830168 -0.30058,0.314891 -0.7586,0.458023 -0.45802,0.128819 -1.11643,0.128819 h -3.66419 v -7.915217 h 4.46573 q 1.10212,0 1.83209,0.171759 0.74429,0.171759 1.23094,0.558216 0.50096,0.386457 0.81585,1.030553 0.32921,0.629782 0.60116,1.545829 z"
           id="path1682" /><path
           d="m 229.39789,31.648707 h -0.61547 q -0.70135,1.245251 -1.24525,2.018166 -0.52959,0.772915 -1.14506,1.216625 -0.61547,0.429397 -1.41701,0.586842 -0.80154,0.157446 -2.04679,0.157446 h -3.40655 q -0.71566,0 -1.07349,-0.171759 -0.35783,-0.171759 -0.50097,-0.472337 -0.12882,-0.300578 -0.12882,-0.701348 0,-0.415084 0,-0.901734 v -6.655653 h 4.43711 q 1.01624,0 1.60308,0.171759 0.58684,0.171759 0.90173,0.52959 0.31489,0.357831 0.44371,0.93036 0.12882,0.572529 0.24333,1.359757 h 0.55821 v -7.013484 h -0.55821 q -0.11451,0.772915 -0.24333,1.316818 -0.12882,0.543902 -0.44371,0.901733 -0.30058,0.357831 -0.88742,0.52959 -0.58684,0.157445 -1.61739,0.157445 h -4.43711 v -7.97247 h 5.58217 q 0.88742,0 1.48857,0.128819 0.61547,0.114506 1.00193,0.343518 0.40077,0.229011 0.62978,0.543902 0.22901,0.300578 0.35783,0.672722 0.14313,0.357831 0.2147,0.772915 0.0859,0.415084 0.20038,0.844481 h 0.58685 l -0.24333,-4.394163 H 212.1075 v 0.52959 h 0.70135 q 0.62979,0 1.0735,0.171759 0.45802,0.157445 0.71566,0.44371 0.38645,0.415084 0.38645,2.34737 v 13.096607 q 0,0.658409 -0.0429,1.102119 -0.0286,0.429397 -0.10019,0.715662 -0.0716,0.271951 -0.18607,0.44371 -0.11451,0.157446 -0.25764,0.286265 -0.15744,0.128819 -0.38646,0.229011 -0.21469,0.08588 -0.44371,0.143133 -0.22901,0.05725 -0.42939,0.08588 -0.20039,0.01431 -0.32921,0.01431 h -0.70135 v 0.558216 h 15.52986 z"
           id="path1684" /><path
           d="M 90.085649,57.584284 89.870951,53.190122 H 74.870684 v 0.529589 h 0.729974 q 0.48665,0 0.944674,0.186072 0.472336,0.171759 0.787228,0.48665 0.214698,0.214699 0.314891,0.744288 0.100192,0.515277 0.100192,1.603082 v 13.039355 q 0,1.81778 -0.357831,2.290117 -0.601155,0.729975 -1.789154,0.729975 h -0.729974 v 0.558216 h 8.645192 V 72.79925 h -0.729975 q -0.52959,0 -1.044866,-0.186072 -0.500963,-0.200386 -0.801541,-0.57253 -0.229012,-0.229011 -0.286265,-0.758601 -0.04294,-0.52959 -0.04294,-1.502889 v -6.326449 h 3.664187 q 0.758601,0 1.259565,0.171759 0.515276,0.171759 0.815854,0.529589 0.314891,0.357831 0.44371,0.887421 0.128819,0.529589 0.128819,1.245251 h 0.543903 v -6.827412 h -0.543903 q -0.114506,0.787228 -0.300578,1.316818 -0.171759,0.515276 -0.472336,0.830167 -0.300578,0.314891 -0.758602,0.458024 -0.458023,0.128819 -1.116432,0.128819 H 80.61029 v -7.915218 h 4.465728 q 1.102119,0 1.832094,0.171759 0.744288,0.171759 1.230938,0.558216 0.500963,0.386457 0.815854,1.030553 0.329204,0.629782 0.601156,1.545829 z"
           id="path1686" /><path
           d="m 112.12803,63.152131 q 0,-1.502889 -0.35783,-2.862646 -0.34352,-1.37407 -0.9733,-2.533442 -0.62979,-1.159372 -1.51721,-2.089732 -0.8731,-0.93036 -1.9466,-1.588769 -1.07349,-0.658409 -2.30443,-1.001926 -1.23093,-0.357831 -2.54775,-0.357831 -1.43132,0 -2.748142,0.357831 -1.302504,0.357831 -2.43325,1.030552 -1.116432,0.658409 -2.032478,1.603082 -0.901734,0.930361 -1.54583,2.104046 -0.644095,1.159371 -1.001926,2.533442 -0.343517,1.359757 -0.343517,2.862646 0,2.375997 0.758601,4.336909 0.772914,1.960913 2.104045,3.36361 1.331131,1.388384 3.120285,2.161298 1.803462,0.758601 3.864572,0.758601 1.4027,0 2.67657,-0.372144 1.2882,-0.35783 2.39031,-1.030552 1.10212,-0.687035 1.98954,-1.646022 0.90174,-0.958987 1.53152,-2.146985 0.62978,-1.187998 0.9733,-2.576382 0.34352,-1.388383 0.34352,-2.905586 z m -3.36361,0.386457 q -0.0143,2.39031 -0.50097,4.136525 -0.48665,1.731901 -1.35975,2.876959 -0.87311,1.130746 -2.07542,1.688962 -1.20231,0.543902 -2.63364,0.529589 -1.56014,-0.01431 -2.76245,-0.715661 -1.187998,-0.715662 -2.003852,-1.975226 -0.801541,-1.273878 -1.216625,-3.048719 -0.415084,-1.774841 -0.415084,-3.907512 0,-2.161298 0.415084,-3.893199 0.429397,-1.746215 1.245251,-2.948526 0.815854,-1.216625 2.003853,-1.86072 1.187993,-0.658409 2.705203,-0.644096 1.67465,0.01431 2.90558,0.672722 1.24525,0.658409 2.06111,1.917973 0.83017,1.245251 1.23094,3.063032 0.41508,1.803467 0.40077,4.107897 z"
           id="path1688" /><path
           d="m 135.0292,53.719711 v -0.529589 h -7.15662 v 0.529589 h 0.7586 q 1.13075,0 1.7319,0.644096 0.41509,0.500963 0.41509,2.375996 v 8.172856 q 0,0.415084 -0.0143,1.187998 0,0.758601 -0.12881,1.617395 -0.11451,0.844481 -0.41509,1.674648 -0.28626,0.815855 -0.85879,1.359757 -0.27195,0.257639 -0.72998,0.57253 -0.44371,0.314891 -1.05918,0.601156 -0.60115,0.271951 -1.37407,0.458023 -0.7586,0.186072 -1.67464,0.186072 -1.2882,0 -2.17562,-0.329204 -0.8731,-0.343518 -1.45995,-0.901734 -0.58684,-0.572529 -0.91604,-1.288191 -0.31489,-0.729975 -0.47234,-1.502889 -0.15744,-0.787228 -0.18607,-1.560143 -0.0286,-0.772914 -0.0286,-1.431323 v -8.816951 q 0,-0.84448 0.10019,-1.388383 0.1002,-0.558216 0.27196,-0.844481 0.12882,-0.200385 0.25763,-0.343518 0.14314,-0.157445 0.3149,-0.243325 0.17175,-0.100192 0.38645,-0.143132 0.22901,-0.05725 0.54391,-0.05725 h 0.7586 v -0.529589 h -8.14423 v 0.529589 h 0.45802 q 0.60116,0 1.01624,0.143133 0.41508,0.128819 0.65841,0.44371 0.27195,0.300578 0.38646,0.901733 0.1145,0.601156 0.1145,1.531516 v 7.915218 q 0,0.601155 0,1.316817 0,0.701348 0.0716,1.45995 0.0716,0.758601 0.24332,1.531515 0.18608,0.758602 0.52959,1.474263 0.35783,0.715662 0.93036,1.331131 0.57253,0.615469 1.41701,1.073492 0.84448,0.458024 2.00386,0.715662 1.17368,0.271951 2.71951,0.271951 1.11643,0 1.98954,-0.143132 0.88742,-0.128819 1.60308,-0.40077 0.71566,-0.271952 1.30251,-0.687036 0.58684,-0.429397 1.14505,-1.001926 0.52959,-0.558216 0.87311,-1.259564 0.34352,-0.701349 0.5439,-1.517203 0.20039,-0.830167 0.27196,-1.774841 0.0716,-0.944673 0.0716,-1.989539 v -8.201482 q 0,-1.703275 0.31489,-2.104045 0.32921,-0.515276 0.7586,-0.772915 0.44371,-0.257638 1.05918,-0.257638 z"
           id="path1690" /><path
           d="m 156.91413,53.719711 v -0.529589 h -6.99917 v 0.529589 h 0.67273 q 1.20231,0 1.76052,0.644096 0.41509,0.415083 0.41509,2.318743 V 68.319208 L 140.4396,53.190122 h -4.92375 v 0.529589 q 0.88742,0 1.47427,0.271952 0.60115,0.271951 0.97329,0.629782 0.38646,0.343517 0.60116,0.701348 0.2147,0.343518 0.35783,0.500963 v 14.012655 q 0,1.731901 -0.35783,2.175611 -0.24332,0.415084 -0.70135,0.601156 -0.44371,0.186072 -1.11643,0.186072 h -0.70135 v 0.558216 h 7.04211 V 72.79925 h -0.70135 q -1.20231,0 -1.76052,-0.615469 -0.41509,-0.48665 -0.41509,-2.34737 V 57.441152 l 13.33993,16.245518 h 0.52959 V 56.68255 q 0,-0.858794 0.0716,-1.388383 0.0716,-0.543903 0.24333,-0.815854 0.24332,-0.372145 0.70134,-0.558217 0.47234,-0.200385 1.11644,-0.200385 z"
           id="path1692" /><path
           d="m 178.19791,63.152131 q 0,-1.187998 -0.22901,-2.275804 -0.2147,-1.102119 -0.62979,-2.075418 -0.40077,-0.9733 -0.9733,-1.789154 -0.57253,-0.815855 -1.27387,-1.445637 -0.71567,-0.629782 -1.58877,-1.073492 -0.8588,-0.458024 -1.96092,-0.744288 -1.0878,-0.286265 -2.43324,-0.415084 -1.34545,-0.143132 -3.0201,-0.143132 h -8.20148 v 0.529589 h 0.7586 q 0.57253,0 0.98762,0.171759 0.42939,0.157446 0.74428,0.472337 0.38646,0.515276 0.38646,2.375996 v 13.039355 q 0,0.858794 -0.0859,1.41701 -0.0859,0.543903 -0.24332,0.787227 -0.24333,0.415084 -0.70135,0.615469 -0.44371,0.200386 -1.08781,0.200386 h -0.7586 v 0.558216 h 9.03165 q 2.90559,0 5.02395,-0.787228 2.13267,-0.801541 3.52105,-2.189925 1.38838,-1.388383 2.06111,-3.23479 0.67272,-1.86072 0.67272,-3.993392 z m -3.36361,0.157446 q 0,2.104045 -0.61547,3.793006 -0.61547,1.674648 -1.70328,2.848333 -1.07349,1.159372 -2.54775,1.774841 -1.47426,0.615469 -3.17754,0.601156 -0.64409,0 -1.43132,-0.114506 -0.78723,-0.114506 -1.7319,-0.314891 V 54.750264 q 0.88742,-0.243325 1.63171,-0.343518 0.7586,-0.100192 1.41701,-0.100192 1.77484,0 3.27773,0.629782 1.50289,0.615469 2.57638,1.789154 1.0878,1.159372 1.68896,2.83402 0.61547,1.660335 0.61547,3.750067 z"
           id="path1694" /><path
           d="M 201.02752,73.357466 V 72.79925 q -0.62978,-0.04294 -1.08781,-0.171759 -0.44371,-0.128819 -0.83017,-0.472337 -0.37214,-0.343517 -0.72997,-0.9733 -0.35783,-0.629782 -0.80154,-1.688961 l -7.01349,-16.775108 h -0.52958 l -7.08505,16.617663 q -0.35784,0.830167 -0.68704,1.459949 -0.3292,0.629782 -0.71566,1.059179 -0.37215,0.429397 -0.84448,0.672722 -0.45803,0.229012 -1.10212,0.271952 v 0.558216 H 185.97 V 72.79925 q -1.05918,-0.08588 -1.58877,-0.300578 -0.52959,-0.229012 -0.68704,-0.601156 -0.14313,-0.372144 0,-0.88742 0.14314,-0.515277 0.4294,-1.202312 l 1.37407,-3.220477 h 7.82934 l 1.20231,2.905586 q 0.25764,0.615469 0.44371,1.202312 0.20039,0.586842 0.12882,1.044866 -0.0716,0.458023 -0.52959,0.758601 -0.44371,0.286264 -1.48858,0.300578 v 0.558216 z m -8.11561,-7.857965 H 185.97 l 3.52105,-8.172855 z"
           id="path1696" /><path
           d="m 219.11944,57.913488 -0.17175,-4.723366 h -16.73217 l -0.2147,4.723366 h 0.67272 q 0.17176,-2.061105 1.25956,-2.848333 0.2147,-0.186072 0.4294,-0.300578 0.22901,-0.128819 0.52959,-0.200385 0.31489,-0.08588 0.74429,-0.114506 0.4294,-0.02863 1.03055,-0.02863 h 2.40463 v 15.415351 q 0,0.88742 -0.0859,1.41701 -0.0716,0.529589 -0.2147,0.758601 -0.30058,0.415084 -0.74429,0.601156 -0.4294,0.186072 -1.07349,0.186072 h -0.72998 v 0.558216 h 8.55931 V 72.79925 h -0.70134 q -1.20232,0 -1.7319,-0.615469 -0.20039,-0.243325 -0.3149,-0.815855 -0.10019,-0.586842 -0.10019,-1.531515 V 54.42106 h 2.84833 q 1.01624,0 1.64603,0.257638 0.62978,0.243325 1.11643,0.744288 0.17176,0.171759 0.31489,0.386457 0.14313,0.200385 0.25764,0.48665 0.12882,0.286265 0.2147,0.687035 0.0859,0.386457 0.14313,0.93036 z"
           id="path1698" /><path
           d="M 229.22458,73.357466 V 72.79925 h -0.72998 q -0.25763,0 -0.5439,-0.05725 -0.28626,-0.07157 -0.5439,-0.171759 -0.25764,-0.100193 -0.45802,-0.229012 -0.18608,-0.128819 -0.27196,-0.243325 -0.17176,-0.271951 -0.25763,-0.801541 -0.0859,-0.543903 -0.0859,-1.517202 V 56.739803 q 0,-0.901733 0.10019,-1.474263 0.10019,-0.572529 0.27195,-0.815854 0.60116,-0.729975 1.78915,-0.729975 h 0.72998 v -0.529589 h -8.64519 v 0.529589 h 0.72997 q 0.51528,0 1.01624,0.200385 0.51528,0.200386 0.80154,0.558217 0.11451,0.128819 0.17176,0.314891 0.0716,0.171758 0.10019,0.44371 0.0429,0.257638 0.0429,0.629782 0.0143,0.357831 0.0143,0.873107 v 13.039355 q 0,1.846407 -0.35783,2.290117 -0.30058,0.372144 -0.72998,0.558216 -0.4294,0.171759 -1.05918,0.171759 h -0.72997 v 0.558216 z"
           id="path1700" /><path
           d="m 250.78031,63.152131 q 0,-1.502889 -0.35783,-2.862646 -0.34352,-1.37407 -0.9733,-2.533442 -0.62978,-1.159372 -1.5172,-2.089732 -0.87311,-0.93036 -1.9466,-1.588769 -1.07349,-0.658409 -2.30443,-1.001926 -1.23094,-0.357831 -2.54776,-0.357831 -1.43132,0 -2.74814,0.357831 -1.3025,0.357831 -2.43325,1.030552 -1.11643,0.658409 -2.03248,1.603082 -0.90173,0.930361 -1.54582,2.104046 -0.6441,1.159371 -1.00193,2.533442 -0.34352,1.359757 -0.34352,2.862646 0,2.375997 0.7586,4.336909 0.77292,1.960913 2.10405,3.36361 1.33113,1.388384 3.12028,2.161298 1.80347,0.758601 3.86457,0.758601 1.4027,0 2.67658,-0.372144 1.28819,-0.35783 2.39031,-1.030552 1.10212,-0.687035 1.98954,-1.646022 0.90173,-0.958987 1.53151,-2.146985 0.62979,-1.187998 0.9733,-2.576382 0.34352,-1.388383 0.34352,-2.905586 z m -3.36361,0.386457 q -0.0143,2.39031 -0.50096,4.136525 -0.48665,1.731901 -1.35976,2.876959 -0.87311,1.130746 -2.07542,1.688962 -1.20231,0.543902 -2.63363,0.529589 -1.56014,-0.01431 -2.76246,-0.715661 -1.18799,-0.715662 -2.00385,-1.975226 -0.80154,-1.273878 -1.21662,-3.048719 -0.41509,-1.774841 -0.41509,-3.907512 0,-2.161298 0.41509,-3.893199 0.42939,-1.746215 1.24525,-2.948526 0.81585,-1.216625 2.00385,-1.86072 1.188,-0.658409 2.7052,-0.644096 1.67465,0.01431 2.90559,0.672722 1.24525,0.658409 2.0611,1.917973 0.83017,1.245251 1.23094,3.063032 0.41509,1.803467 0.40077,4.107897 z"
           id="path1702" /><path
           d="m 273.55266,53.719711 v -0.529589 h -6.99917 v 0.529589 h 0.67272 q 1.20231,0 1.76053,0.644096 0.41508,0.415083 0.41508,2.318743 V 68.319208 L 257.07813,53.190122 h -4.92375 v 0.529589 q 0.88742,0 1.47426,0.271952 0.60116,0.271951 0.9733,0.629782 0.38646,0.343517 0.60116,0.701348 0.2147,0.343518 0.35783,0.500963 v 14.012655 q 0,1.731901 -0.35783,2.175611 -0.24333,0.415084 -0.70135,0.601156 -0.44371,0.186072 -1.11643,0.186072 h -0.70135 v 0.558216 h 7.04211 V 72.79925 h -0.70135 q -1.20231,0 -1.76053,-0.615469 -0.41508,-0.48665 -0.41508,-2.34737 V 57.441152 l 13.33993,16.245518 h 0.52959 V 56.68255 q 0,-0.858794 0.0716,-1.388383 0.0716,-0.543903 0.24332,-0.815854 0.24333,-0.372145 0.70135,-0.558217 0.47234,-0.200385 1.11643,-0.200385 z"
           id="path1704" /></g><g
         aria-label="எ"
         id="text740-6-0"
         style="font-size:105.931px;font-family:GIST-TMOTPadma;-inkscape-font-specification:'GIST-TMOTPadma, Normal';fill:#ffffff;fill-opacity:0.997821;stroke-width:8.79545;paint-order:markers stroke fill"><path
           d="M 72.349941,11.385104 H 64.332702 V 79.557495 L 53.88443,68.488533 V 11.385104 H 38.57409 q -13.396547,0 -22.499992,12.413789 -8.0689633,11.017238 -8.0689633,23.482751 0,5.534481 2.0172403,9.103445 4.499999,7.965515 13.810341,7.965515 6.465515,0 11.793099,-3.879309 5.844826,-4.241378 5.844826,-10.499997 0,-3.155171 -1.706896,-6.258618 -1.086207,-1.965517 -3.931033,-1.965517 -4.551723,0 -12.103445,4.448274 l -3.77586,-9.155169 q 4.810343,-3.51724 10.758617,-3.51724 7.965514,0 12.310341,7.137928 3.620688,5.948274 3.620688,14.379306 0,8.948273 -4.293102,14.482754 -4.706895,6.103446 -13.396547,6.103446 -7.086205,0 -13.448272,-4.810343 Q 5.1085839,62.902328 1.1775507,44.178197 0.24651653,39.729922 0.24651653,35.488544 q 0,-14.431029 10.65516847,-23.275854 9.258618,-7.6551701 20.999994,-7.6551701 h 33.206885 z"
           id="path1707" /></g></g></g></svg>
