<?xml version="1.0" encoding="UTF-8" standalone="no"?>
<!-- Created with Inkscape (http://www.inkscape.org/) -->

<svg
   width="292.13846"
   height="74.999992"
   viewBox="0 0 292.13846 74.999992"
   version="1.1"
   id="svg5"
   inkscape:version="1.2.2 (b0a8486541, 2022-12-01)"
   sodipodi:docname="ask-life_foundation_logo.svg"
   xml:space="preserve"
   xmlns:inkscape="http://www.inkscape.org/namespaces/inkscape"
   xmlns:sodipodi="http://sodipodi.sourceforge.net/DTD/sodipodi-0.dtd"
   xmlns="http://www.w3.org/2000/svg"
   xmlns:svg="http://www.w3.org/2000/svg"><sodipodi:namedview
     id="namedview7"
     pagecolor="#ffffff"
     bordercolor="#111111"
     borderopacity="1"
     inkscape:showpageshadow="0"
     inkscape:pageopacity="0"
     inkscape:pagecheckerboard="1"
     inkscape:deskcolor="#d1d1d1"
     inkscape:document-units="mm"
     showgrid="false"
     inkscape:zoom="2"
     inkscape:cx="156.5"
     inkscape:cy="16.25"
     inkscape:window-width="1366"
     inkscape:window-height="739"
     inkscape:window-x="0"
     inkscape:window-y="0"
     inkscape:window-maximized="1"
     inkscape:current-layer="layer1"><inkscape:grid
       type="xygrid"
       id="grid4085"
       originx="-0.24652456"
       originy="-4.5575004" /></sodipodi:namedview><defs
     id="defs2"><rect
       x="68.675438"
       y="63.403507"
       width="4.6374269"
       height="20.874269"
       id="rect5382" /><rect
       x="484.52213"
       y="588.17334"
       width="31.689295"
       height="22.78693"
       id="rect1552" /><rect
       x="-2.6883631"
       y="31.523062"
       width="20.65023"
       height="10.277494"
       id="rect430" /></defs><g
     inkscape:label="Layer 1"
     inkscape:groupmode="layer"
     id="layer1"
     transform="translate(-0.24652453,-4.5575004)"><text
       xml:space="preserve"
       transform="scale(0.26458333)"
       id="text428"
       style="font-style:normal;font-variant:normal;font-weight:normal;font-stretch:normal;font-size:9.83242px;font-family:'Brie Light';-inkscape-font-specification:'Brie Light, Normal';font-variant-ligatures:normal;font-variant-caps:normal;font-variant-numeric:normal;font-variant-east-asian:normal;white-space:pre;shape-inside:url(#rect430);display:inline;fill:#000000;stroke-width:15.1181" /><text
       xml:space="preserve"
       transform="scale(0.26458333)"
       id="text1550"
       style="font-style:normal;font-variant:normal;font-weight:normal;font-stretch:normal;font-size:21.2571px;font-family:'Gentium Plus';-inkscape-font-specification:'Gentium Plus, Normal';font-variant-ligatures:normal;font-variant-caps:normal;font-variant-numeric:normal;font-variant-east-asian:normal;white-space:pre;shape-inside:url(#rect1552);display:inline;fill:#000002;fill-opacity:0.992157;stroke:#000000;stroke-width:1.24346;stroke-dasharray:none;stroke-opacity:1;paint-order:markers stroke fill" /><text
       xml:space="preserve"
       transform="scale(0.26458333)"
       id="text5380"
       style="font-style:normal;font-variant:normal;font-weight:bold;font-stretch:normal;font-size:18.6667px;line-height:0;font-family:Carlito;-inkscape-font-specification:'Carlito, Bold';font-variant-ligatures:normal;font-variant-caps:normal;font-variant-numeric:normal;font-variant-east-asian:normal;white-space:pre;shape-inside:url(#rect5382);display:inline;fill:#000000;fill-opacity:0.993464;stroke:none;stroke-width:3.77953;stroke-dasharray:none;stroke-opacity:1;paint-order:markers stroke fill" /><g
       id="g1835"
       transform="matrix(15.207893,0,0,15.207893,-54.840786,-77.932435)"><g
         aria-label="ASK · LIFE
FOUNDATION"
         transform="scale(1.068843,0.93559111)"
         id="text2889-8-3-5-0"
         style="font-size:1.92752px;font-family:'Galatia SIL';-inkscape-font-specification:'Galatia SIL, Normal';fill:#ff5a5a;stroke:#ffffff;stroke-width:0.14079;paint-order:markers stroke fill"><path
           d="m 9.6880092,7.8915029 v -0.036706 q -0.041412,-0.00282 -0.071529,-0.011294 -0.029176,-0.00847 -0.054588,-0.031059 -0.024471,-0.022588 -0.048,-0.064 -0.023529,-0.041412 -0.052706,-0.1110583 L 9.0000126,6.534333 H 8.9651892 L 8.4993091,7.6270336 q -0.023529,0.054588 -0.045176,0.096 -0.021647,0.041412 -0.047059,0.069647 -0.02447,0.028235 -0.055529,0.044235 -0.030117,0.015059 -0.07247,0.017882 v 0.036706 h 0.4188215 v -0.036706 q -0.069647,-0.00565 -0.1044701,-0.019765 -0.034823,-0.015059 -0.045176,-0.039529 -0.00941,-0.02447 0,-0.058353 0.00941,-0.033882 0.028235,-0.079059 L 8.6668375,7.446328 h 0.514821 l 0.079059,0.1910578 q 0.016941,0.04047 0.029176,0.079059 0.013176,0.038588 0.00847,0.068706 -0.00471,0.030118 -0.034823,0.049882 -0.029176,0.018824 -0.097882,0.019765 v 0.036706 z M 9.1543648,7.3747995 H 8.6978964 L 8.9294247,6.8373903 Z"
           style="fill:#ffffff;stroke:none"
           id="path246" /><path
           d="m 10.712004,7.552681 q 0,-0.081882 -0.03765,-0.153411 -0.03765,-0.071529 -0.10447,-0.1223524 -0.03576,-0.026353 -0.09882,-0.064941 -0.06212,-0.038588 -0.156234,-0.089411 -0.09788,-0.052706 -0.161882,-0.092235 -0.064,-0.04047 -0.101646,-0.074353 -0.03671,-0.034823 -0.051765,-0.067764 -0.014117,-0.032941 -0.014117,-0.07247 0,-0.041412 0.017882,-0.078117 0.01882,-0.037647 0.04988,-0.064941 0.032,-0.028235 0.07435,-0.044235 0.04329,-0.016941 0.09129,-0.016941 0.06965,0 0.131764,0.02447 0.06306,0.02447 0.112,0.073411 0.04988,0.048 0.08188,0.1195288 0.03294,0.071529 0.04235,0.1647051 h 0.03671 V 6.534333 h -0.03671 q -0.01035,0.042353 -0.02635,0.058353 -0.01506,0.016 -0.03671,0.016 -0.02165,0 -0.05082,-0.011294 -0.02824,-0.012235 -0.06588,-0.025412 -0.03765,-0.014118 -0.08471,-0.025412 -0.04706,-0.012235 -0.105411,-0.012235 -0.08941,0 -0.160941,0.028235 -0.070587,0.028235 -0.1214107,0.076235 -0.049882,0.048 -0.077176,0.1110583 -0.026353,0.063058 -0.026353,0.1336464 0,0.061176 0.016,0.1110582 0.016,0.049882 0.058353,0.097882 0.042353,0.048 0.1176457,0.1007054 0.07529,0.051764 0.193882,0.1185877 0.08753,0.048941 0.147764,0.086588 0.06118,0.036706 0.09882,0.07247 0.03859,0.034823 0.05553,0.07247 0.01788,0.036706 0.01788,0.085647 0,0.043294 -0.01882,0.082823 -0.01788,0.039529 -0.05271,0.069647 -0.03482,0.029176 -0.08376,0.047059 -0.04894,0.016941 -0.109176,0.016941 -0.07059,0 -0.137411,-0.020706 Q 10.069172,7.803974 10.015523,7.758798 9.962817,7.713622 9.926112,7.6420927 9.889406,7.5696227 9.877171,7.4670347 H 9.842348 v 0.4555272 h 0.034823 q 0.00659,-0.043294 0.020706,-0.059294 0.015059,-0.016941 0.038588,-0.016941 0.024471,0 0.057412,0.012235 0.032941,0.011294 0.077176,0.026353 0.04424,0.014117 0.09976,0.025412 0.05553,0.012235 0.123294,0.012235 0.09129,0 0.16847,-0.029176 0.07718,-0.029176 0.131764,-0.079058 0.05553,-0.050823 0.08659,-0.1176465 0.03106,-0.067764 0.03106,-0.1439993 z"
           style="fill:#ffffff;stroke:none"
           id="path248" /><path
           d="M 12.28282,7.8915029 V 7.8547969 Q 12.23953,7.8500869 12.19717,7.8397379 12.15576,7.8284439 12.11341,7.8067969 12.02682,7.7635029 11.907294,7.643033 L 11.417884,7.1555059 11.620236,6.953154 q 0.06306,-0.063059 0.105411,-0.1063524 0.04235,-0.043294 0.07059,-0.071529 0.02918,-0.029176 0.048,-0.046117 0.01882,-0.017882 0.03294,-0.029176 0.01506,-0.012235 0.03012,-0.022588 0.01506,-0.010353 0.03671,-0.023529 0.02635,-0.016941 0.048,-0.027294 0.02165,-0.010353 0.04047,-0.016 0.01976,-0.00565 0.03765,-0.00753 0.01882,-0.00282 0.03953,-0.00282 v -0.034823 h -0.48941 v 0.034823 h 0.03106 q 0.04894,0 0.0687,0.017882 0.01976,0.017882 0.01976,0.037647 0,0.017882 -0.0066,0.034823 -0.0056,0.016 -0.01882,0.034823 -0.03012,0.045176 -0.117646,0.1383523 -0.08753,0.093176 -0.23247,0.2277635 -0.05835,0.053647 -0.09223,0.084706 -0.03294,0.030118 -0.04329,0.038588 v -0.415998 q 0,-0.042353 0.0019,-0.069647 0.0028,-0.027294 0.0066,-0.044235 0.0047,-0.017882 0.01035,-0.028235 0.0066,-0.010353 0.01412,-0.017882 0.0207,-0.020706 0.05082,-0.029176 0.03012,-0.00941 0.05929,-0.00941 h 0.04612 V 6.5653917 H 10.85318 v 0.034823 h 0.04612 q 0.016,0 0.03388,0.00471 0.01788,0.00376 0.03388,0.010353 0.01694,0.00565 0.02918,0.013176 0.01318,0.00753 0.01882,0.014118 0.01318,0.016 0.01882,0.052706 0.0066,0.036706 0.0066,0.1035289 v 0.8574076 q 0,0.1223523 -0.02165,0.1505875 -0.03953,0.048 -0.119528,0.048 h -0.04612 v 0.036706 h 0.564703 v -0.036706 h -0.04612 q -0.03576,0 -0.06965,-0.012235 -0.03294,-0.012235 -0.04988,-0.035764 -0.0075,-0.011294 -0.01223,-0.023529 -0.0047,-0.013176 -0.0075,-0.031059 -0.0019,-0.017882 -0.0028,-0.04047 -9.41e-4,-0.023529 -9.41e-4,-0.055529 V 7.3437408 l 0.05835,-0.057411 0.399057,0.3971746 q 0.02165,0.021647 0.03577,0.037647 0.01506,0.016 0.02353,0.029176 0.0085,0.012235 0.01129,0.022588 0.0038,0.010353 0.0019,0.020706 -0.0028,0.025412 -0.02729,0.043294 -0.02353,0.017882 -0.08,0.017882 v 0.036706 z"
           style="fill:#ffffff;stroke:none"
           id="path250" /><path
           d="m 13.39905,7.2364472 q 0,-0.046117 -0.01788,-0.086588 -0.01694,-0.04047 -0.04706,-0.070588 -0.02918,-0.030118 -0.07059,-0.047059 -0.04047,-0.017882 -0.08659,-0.017882 -0.04612,0 -0.08659,0.017882 -0.04047,0.016941 -0.07059,0.047059 -0.02918,0.030118 -0.04706,0.070588 -0.01694,0.04047 -0.01694,0.086588 0,0.046117 0.01694,0.086588 0.01788,0.04047 0.04706,0.070588 0.03012,0.029176 0.07059,0.047059 0.04047,0.016941 0.08659,0.016941 0.04612,0 0.08659,-0.016941 0.04141,-0.017882 0.07059,-0.047059 0.03012,-0.030118 0.04706,-0.070588 0.01788,-0.04047 0.01788,-0.086588 z"
           style="fill:#ffffff;stroke:none"
           id="path252" /><path
           d="m 15.273864,7.531034 -0.03388,-0.00565 q -0.01882,0.044235 -0.03482,0.077176 -0.016,0.032 -0.03294,0.057411 -0.01694,0.025412 -0.03671,0.046117 -0.01882,0.020706 -0.04424,0.042353 -0.02071,0.018823 -0.04518,0.030117 -0.02353,0.011294 -0.05647,0.017882 -0.032,0.00565 -0.07624,0.00847 -0.04329,0.00188 -0.103528,0.00188 h -0.134588 q -0.04329,0 -0.07529,-0.00471 -0.03106,-0.00471 -0.05176,-0.021647 -0.01976,-0.016941 -0.03012,-0.049882 -0.0094,-0.032941 -0.0094,-0.089411 V 6.7677436 q 0,-0.05647 0.01412,-0.089411 0.01412,-0.032941 0.03953,-0.049882 0.02635,-0.016941 0.06212,-0.021647 0.03576,-0.00471 0.07906,-0.00471 v -0.036706 h -0.575997 v 0.036706 q 0.04329,0 0.07906,0.00471 0.03576,0.00471 0.06118,0.021647 0.02635,0.016941 0.04047,0.049882 0.01412,0.032941 0.01412,0.089411 v 0.9214073 q 0,0.05647 -0.01412,0.089411 -0.01412,0.032941 -0.04047,0.049882 -0.02541,0.016941 -0.06118,0.021647 -0.03576,0.00471 -0.07906,0.00471 v 0.036706 h 1.031524 z"
           style="fill:#ffffff;stroke:none"
           id="path254" /><path
           d="m 15.932685,7.8915029 v -0.036706 h -0.048 q -0.01694,0 -0.03576,-0.00376 -0.01882,-0.00471 -0.03577,-0.011294 -0.01694,-0.00659 -0.03012,-0.015059 -0.01223,-0.00847 -0.01788,-0.016 -0.01129,-0.017882 -0.01694,-0.052706 -0.0056,-0.035765 -0.0056,-0.099764 V 6.7988023 q 0,-0.059294 0.0066,-0.096941 0.0066,-0.037647 0.01788,-0.053647 0.03953,-0.048 0.117646,-0.048 h 0.048 v -0.034823 h -0.568468 v 0.034823 h 0.048 q 0.03388,0 0.06682,0.013176 0.03388,0.013176 0.05271,0.036706 0.0075,0.00847 0.01129,0.020706 0.0047,0.011294 0.0066,0.029176 0.0028,0.016941 0.0028,0.041412 9.42e-4,0.023529 9.42e-4,0.057412 v 0.8574076 q 0,0.1214112 -0.02353,0.1505875 -0.01976,0.024471 -0.048,0.036706 -0.02824,0.011294 -0.06965,0.011294 h -0.048 v 0.036706 z"
           style="fill:#ffffff;stroke:none"
           id="path256" /><path
           d="m 17.015032,6.8543314 -0.01412,-0.2889397 h -0.986348 v 0.034823 h 0.048 q 0.032,0 0.06212,0.012235 0.03106,0.011294 0.05176,0.032 0.01412,0.014118 0.02071,0.048941 0.0066,0.033882 0.0066,0.1054113 v 0.8574076 q 0,0.1195288 -0.02353,0.1505875 -0.03953,0.048 -0.117647,0.048 h -0.048 v 0.036706 h 0.568467 v -0.036706 h -0.048 q -0.03482,0 -0.06871,-0.012235 -0.03294,-0.013176 -0.05271,-0.037647 -0.01506,-0.015059 -0.01882,-0.049882 -0.0028,-0.034823 -0.0028,-0.098823 v -0.415998 h 0.24094 q 0.04988,0 0.08282,0.011294 0.03388,0.011294 0.05365,0.034823 0.02071,0.023529 0.02918,0.058353 0.0085,0.034823 0.0085,0.081882 h 0.03576 v -0.448939 h -0.03576 q -0.0075,0.051764 -0.01976,0.086588 -0.01129,0.033882 -0.03106,0.054588 -0.01976,0.020706 -0.04988,0.030117 -0.03012,0.00847 -0.07341,0.00847 h -0.24094 V 6.6369207 h 0.293645 q 0.07247,0 0.12047,0.011294 0.04894,0.011294 0.08094,0.036706 0.03294,0.025412 0.05365,0.067764 0.02165,0.041411 0.03953,0.1016465 z"
           style="fill:#ffffff;stroke:none"
           id="path258" /><path
           d="m 18.275261,7.558328 h -0.04047 q -0.04612,0.081882 -0.08188,0.1327052 -0.03482,0.050823 -0.07529,0.08 -0.04047,0.028235 -0.09318,0.038588 -0.0527,0.010353 -0.134587,0.010353 h -0.223999 q -0.04706,0 -0.07059,-0.011294 -0.02353,-0.011294 -0.03294,-0.031059 -0.0085,-0.019765 -0.0085,-0.046118 0,-0.027294 0,-0.059294 V 7.2345649 h 0.291764 q 0.06682,0 0.105411,0.011294 0.03859,0.011294 0.05929,0.034823 0.0207,0.023529 0.02918,0.061176 0.0085,0.037647 0.016,0.089411 h 0.03671 V 6.9700956 h -0.03671 q -0.0075,0.050823 -0.016,0.086588 -0.0085,0.035764 -0.02918,0.059294 -0.01976,0.023529 -0.05835,0.034823 -0.03859,0.010353 -0.106352,0.010353 H 17.513853 V 6.6369207 h 0.367057 q 0.05835,0 0.09788,0.00847 0.04047,0.00753 0.06588,0.022588 0.02635,0.015059 0.04141,0.035764 0.01506,0.019765 0.02353,0.044235 0.0094,0.023529 0.01412,0.050823 0.0056,0.027294 0.01318,0.055529 H 18.1755 L 18.1595,6.56539 h -1.021171 v 0.034823 h 0.04612 q 0.04141,0 0.07059,0.011294 0.03012,0.010353 0.04706,0.029176 0.02541,0.027294 0.02541,0.1543522 v 0.8611723 q 0,0.043294 -0.0028,0.07247 -0.0019,0.028235 -0.0066,0.047059 -0.0047,0.017882 -0.01224,0.029176 -0.0075,0.010353 -0.01694,0.018823 -0.01035,0.00847 -0.02541,0.015059 -0.01412,0.00565 -0.02918,0.00941 -0.01506,0.00376 -0.02823,0.00565 -0.01318,9.412e-4 -0.02165,9.412e-4 h -0.04612 v 0.036706 h 1.021171 z"
           style="fill:#ffffff;stroke:none"
           id="path260" /><path
           d="M 9.2974229,9.2637315 9.2833053,8.9747917 H 8.2969572 v 0.034823 h 0.048 q 0.032,0 0.062117,0.012235 0.031059,0.011294 0.051764,0.032 0.014118,0.014118 0.020706,0.048941 0.00659,0.033882 0.00659,0.1054112 V 10.06561 q 0,0.119529 -0.023529,0.150587 -0.039529,0.048 -0.1176465,0.048 h -0.048 v 0.03671 H 8.865425 v -0.03671 h -0.048 q -0.034823,0 -0.068706,-0.01223 -0.032941,-0.01318 -0.052706,-0.03765 -0.015059,-0.01506 -0.018823,-0.04988 -0.00282,-0.03482 -0.00282,-0.09882 V 9.649612 h 0.24094 q 0.049882,0 0.082823,0.011294 0.033882,0.011294 0.053647,0.034823 0.020706,0.023529 0.029176,0.058353 0.00847,0.034823 0.00847,0.081882 H 9.125191 V 9.387025 H 9.089426 Q 9.081896,9.438789 9.069661,9.473613 9.058367,9.507495 9.038602,9.528201 9.018837,9.548907 8.98872,9.558318 8.958603,9.566788 8.915309,9.566788 H 8.674369 V 9.04632 h 0.2936456 q 0.07247,0 0.12047,0.011294 0.048941,0.011294 0.080941,0.036706 0.032941,0.025412 0.053647,0.067764 0.021647,0.041412 0.039529,0.1016466 z"
           style="fill:#ffffff;stroke:none"
           id="path262" /><path
           d="m 10.746828,9.6298473 q 0,-0.098823 -0.02353,-0.1882343 -0.02259,-0.090352 -0.064,-0.1665875 -0.04141,-0.076235 -0.09977,-0.1374111 -0.05741,-0.061176 -0.127999,-0.10447 -0.07059,-0.043294 -0.151529,-0.065882 -0.08094,-0.023529 -0.167528,-0.023529 -0.09412,0 -0.1807052,0.023529 -0.085647,0.023529 -0.1599992,0.067764 -0.073411,0.043294 -0.1336464,0.1054113 -0.059294,0.061176 -0.1016466,0.1383522 -0.042353,0.076235 -0.065882,0.1665875 -0.022588,0.089411 -0.022588,0.1882343 0,0.1562346 0.049882,0.2851751 0.050823,0.1289412 0.1383522,0.2211762 0.087529,0.09129 0.2051755,0.142116 0.1185877,0.04988 0.2541167,0.04988 0.09224,0 0.175999,-0.02447 0.08471,-0.02353 0.157176,-0.06776 0.07247,-0.04518 0.130822,-0.108235 0.05929,-0.06306 0.100706,-0.1411761 0.04141,-0.078117 0.064,-0.169411 0.02259,-0.091294 0.02259,-0.1910579 z m -0.221176,0.025412 q -9.41e-4,0.1571757 -0.03294,0.2719987 -0.032,0.113881 -0.08941,0.189175 -0.05741,0.07435 -0.13647,0.111058 -0.07906,0.03576 -0.173176,0.03482 -0.1025874,-9.41e-4 -0.1816458,-0.04706 -0.078117,-0.04706 -0.1317641,-0.129881 -0.052706,-0.08377 -0.08,-0.2004698 -0.027294,-0.1167053 -0.027294,-0.2569399 0,-0.142117 0.027294,-0.2559988 0.028235,-0.1148229 0.081882,-0.1938814 0.053647,-0.08 0.131764,-0.1223523 0.078117,-0.043294 0.1778819,-0.042353 0.110117,9.411e-4 0.191058,0.044235 0.08188,0.043294 0.135529,0.1261171 0.05459,0.081882 0.08094,0.2014108 0.02729,0.1185876 0.02635,0.2701163 z"
           style="fill:#ffffff;stroke:none"
           id="path264" /><path
           d="m 12.252703,9.0096151 v -0.034823 h -0.470586 v 0.034823 h 0.04988 q 0.07435,0 0.113882,0.042353 0.02729,0.032941 0.02729,0.1562345 v 0.5374092 q 0,0.027294 -9.41e-4,0.078117 0,0.049882 -0.0085,0.1063524 -0.0075,0.055529 -0.02729,0.1101168 -0.01882,0.05365 -0.05647,0.08941 -0.01788,0.01694 -0.048,0.03765 -0.02918,0.02071 -0.06965,0.03953 -0.03953,0.01788 -0.09035,0.03012 -0.04988,0.01224 -0.110117,0.01224 -0.08471,0 -0.143058,-0.02165 -0.05741,-0.02259 -0.096,-0.05929 -0.03859,-0.03765 -0.06024,-0.08471 -0.02071,-0.048 -0.03106,-0.098823 -0.01035,-0.051764 -0.01224,-0.1025877 -0.0019,-0.050823 -0.0019,-0.094117 v -0.579768 q 0,-0.055529 0.0066,-0.091294 0.0066,-0.036706 0.01788,-0.055529 0.0085,-0.013176 0.01694,-0.022588 0.0094,-0.010353 0.02071,-0.016 0.01129,-0.00659 0.02541,-0.00941 0.01506,-0.00376 0.03576,-0.00376 h 0.04988 v -0.034823 h -0.535526 v 0.034823 h 0.03012 q 0.03953,0 0.06682,0.00941 0.02729,0.00847 0.04329,0.029176 0.01788,0.019765 0.02541,0.059294 0.0075,0.039529 0.0075,0.1007054 v 0.5204681 q 0,0.039529 0,0.086588 0,0.046117 0.0047,0.095999 0.0047,0.049882 0.016,0.1007052 0.01223,0.04988 0.03482,0.09694 0.02353,0.04706 0.06118,0.08753 0.03765,0.04047 0.09318,0.07059 0.05553,0.03012 0.131764,0.04706 0.07718,0.01788 0.178822,0.01788 0.07341,0 0.130823,-0.0094 0.05835,-0.0085 0.105411,-0.02635 0.04706,-0.01788 0.08565,-0.04518 0.03859,-0.02824 0.07529,-0.06588 0.03482,-0.03671 0.05741,-0.08282 0.02259,-0.04612 0.03576,-0.09976 0.01318,-0.054588 0.01788,-0.1167048 0.0047,-0.062117 0.0047,-0.1308229 V 9.2157317 q 0,-0.1119994 0.02071,-0.1383523 0.02165,-0.033882 0.04988,-0.050823 0.02918,-0.016941 0.06965,-0.016941 z"
           style="fill:#ffffff;stroke:none"
           id="path266" /><path
           d="m 13.691754,9.0096151 v -0.034823 h -0.460233 v 0.034823 h 0.04423 q 0.07906,0 0.115765,0.042353 0.02729,0.027294 0.02729,0.1524698 v 0.7651725 l -0.81034,-0.9948187 h -0.323764 v 0.034823 q 0.05835,0 0.09694,0.017882 0.03953,0.017882 0.064,0.041412 0.02541,0.022588 0.03953,0.046117 0.01412,0.022588 0.02353,0.032941 v 0.9214073 q 0,0.113881 -0.02353,0.143058 -0.016,0.02729 -0.04612,0.03953 -0.02918,0.01223 -0.07341,0.01223 h -0.04612 v 0.03671 h 0.463056 v -0.03671 h -0.04612 q -0.07906,0 -0.115764,-0.04047 -0.02729,-0.032 -0.02729,-0.154352 V 9.2543198 l 0.877172,1.0682302 h 0.03482 V 9.2044376 q 0,-0.05647 0.0047,-0.091294 0.0047,-0.035765 0.016,-0.053647 0.016,-0.02447 0.04612,-0.036706 0.03106,-0.013176 0.07341,-0.013176 z"
           style="fill:#ffffff;stroke:none"
           id="path268" /><path
           d="m 15.091277,9.6298473 q 0,-0.078117 -0.01506,-0.1496463 -0.01412,-0.07247 -0.04141,-0.1364699 -0.02635,-0.064 -0.064,-0.1176465 -0.03765,-0.053647 -0.08376,-0.095058 -0.04706,-0.041412 -0.10447,-0.070588 -0.05647,-0.030117 -0.128941,-0.048941 -0.07153,-0.018823 -0.159999,-0.027294 -0.08847,-0.00941 -0.198587,-0.00941 h -0.539292 v 0.034823 h 0.04988 q 0.03765,0 0.06494,0.011294 0.02824,0.010353 0.04894,0.031059 0.02541,0.033882 0.02541,0.1562345 V 10.06561 q 0,0.05647 -0.0056,0.09318 -0.0056,0.03576 -0.016,0.05176 -0.016,0.02729 -0.04612,0.04047 -0.02918,0.01318 -0.07153,0.01318 h -0.04988 v 0.03671 h 0.59388 q 0.191058,0 0.330351,-0.05176 0.140235,-0.0527 0.231528,-0.143999 0.09129,-0.09129 0.135529,-0.2127047 0.04424,-0.1223523 0.04424,-0.262587 z m -0.221175,0.010353 q 0,0.1383523 -0.04047,0.2494106 -0.04047,0.1101171 -0.112,0.1872931 -0.07059,0.07623 -0.167529,0.116705 -0.09694,0.04047 -0.20894,0.03953 -0.04235,0 -0.09412,-0.0075 -0.05176,-0.0075 -0.113882,-0.02071 V 9.0773794 q 0.05835,-0.016 0.107294,-0.022588 0.04988,-0.00659 0.09318,-0.00659 0.116705,0 0.215528,0.041412 0.09882,0.04047 0.169411,0.1176465 0.07153,0.076235 0.111059,0.186352 0.04047,0.1091759 0.04047,0.246587 z"
           style="fill:#ffffff;stroke:none"
           id="path270" /><path
           d="m 16.592446,10.300903 v -0.03671 q -0.04141,-0.0028 -0.07153,-0.01129 -0.02918,-0.0085 -0.05459,-0.03106 -0.02447,-0.02259 -0.048,-0.064 -0.02353,-0.04141 -0.0527,-0.111059 L 15.90445,8.943733 h -0.03482 l -0.46588,1.092701 q -0.02353,0.05459 -0.04518,0.096 -0.02165,0.04141 -0.04706,0.06965 -0.02447,0.02823 -0.05553,0.04423 -0.03012,0.01506 -0.07247,0.01788 v 0.03671 h 0.418821 v -0.03671 q -0.06965,-0.0056 -0.10447,-0.01976 -0.03482,-0.01506 -0.04518,-0.03953 -0.0094,-0.02447 0,-0.05835 0.0094,-0.03388 0.02824,-0.07906 l 0.09035,-0.2117634 h 0.514821 l 0.07906,0.1910574 q 0.01694,0.04047 0.02918,0.07906 0.01318,0.03859 0.0085,0.0687 -0.0047,0.03012 -0.03482,0.04988 -0.02918,0.01882 -0.09788,0.01976 v 0.03671 z M 16.058802,9.7841995 h -0.456469 l 0.231529,-0.5374091 z"
           style="fill:#ffffff;stroke:none"
           id="path272" /><path
           d="m 17.782087,9.2853784 -0.01129,-0.3105867 h -1.10023 l -0.01412,0.3105867 h 0.04424 q 0.01129,-0.1355287 0.08282,-0.1872932 0.01412,-0.012235 0.02823,-0.019765 0.01506,-0.00847 0.03482,-0.013176 0.0207,-0.00565 0.04894,-0.00753 0.02824,-0.00188 0.06776,-0.00188 h 0.158117 v 1.0136428 q 0,0.05835 -0.0056,0.09318 -0.0047,0.03482 -0.01412,0.04988 -0.01976,0.02729 -0.04894,0.03953 -0.02824,0.01223 -0.07059,0.01223 h -0.048 v 0.03671 h 0.56282 v -0.03671 h -0.04612 q -0.07906,0 -0.113882,-0.04047 -0.01318,-0.016 -0.02071,-0.05365 -0.0066,-0.03859 -0.0066,-0.100705 V 9.0557325 h 0.187293 q 0.06682,0 0.108235,0.016941 0.04141,0.016 0.07341,0.048941 0.01129,0.011294 0.0207,0.025412 0.0094,0.013176 0.01694,0.032 0.0085,0.018823 0.01412,0.045176 0.0056,0.025412 0.0094,0.061176 z"
           style="fill:#ffffff;stroke:none"
           id="path274" /><path
           d="m 18.446555,10.300903 v -0.03671 h -0.048 q -0.01694,0 -0.03576,-0.0038 -0.01882,-0.0047 -0.03577,-0.0113 -0.01694,-0.0066 -0.03012,-0.01506 -0.01224,-0.0085 -0.01788,-0.016 -0.01129,-0.01788 -0.01694,-0.05271 -0.0056,-0.03576 -0.0056,-0.09976 V 9.2082023 q 0,-0.059294 0.0066,-0.096941 0.0066,-0.037647 0.01788,-0.053647 0.03953,-0.048 0.117646,-0.048 h 0.048 v -0.034823 h -0.568468 v 0.034823 h 0.048 q 0.03388,0 0.06682,0.013176 0.03388,0.013176 0.05271,0.036706 0.0075,0.00847 0.01129,0.020706 0.0047,0.011294 0.0066,0.029176 0.0028,0.016941 0.0028,0.041411 9.41e-4,0.023529 9.41e-4,0.057412 V 10.06561 q 0,0.121411 -0.02353,0.150587 -0.01976,0.02447 -0.048,0.03671 -0.02823,0.01129 -0.06965,0.01129 h -0.048 v 0.03671 z"
           style="fill:#ffffff;stroke:none"
           id="path276" /><path
           d="m 19.86396,9.6298473 q 0,-0.098823 -0.02353,-0.1882343 -0.02259,-0.090352 -0.064,-0.1665875 -0.04141,-0.076235 -0.09976,-0.1374111 -0.05741,-0.061176 -0.128,-0.10447 -0.07059,-0.043294 -0.151529,-0.065882 -0.08094,-0.023529 -0.167528,-0.023529 -0.09412,0 -0.180705,0.023529 -0.08565,0.023529 -0.159999,0.067764 -0.07341,0.043294 -0.133647,0.1054113 -0.05929,0.061176 -0.101646,0.1383522 -0.04235,0.076235 -0.06588,0.1665875 -0.02259,0.089411 -0.02259,0.1882343 0,0.1562346 0.04988,0.2851751 0.05082,0.1289412 0.138352,0.2211762 0.08753,0.09129 0.205175,0.142116 0.118588,0.04988 0.254117,0.04988 0.09223,0 0.175999,-0.02447 0.0847,-0.02353 0.157176,-0.06776 0.07247,-0.04518 0.130823,-0.108235 0.05929,-0.06306 0.100705,-0.1411761 0.04141,-0.078117 0.064,-0.169411 0.02259,-0.091294 0.02259,-0.1910579 z m -0.221176,0.025412 q -9.41e-4,0.1571757 -0.03294,0.2719987 -0.032,0.113881 -0.08941,0.189175 -0.05741,0.07435 -0.13647,0.111058 -0.07906,0.03576 -0.173176,0.03482 -0.102587,-9.41e-4 -0.181646,-0.04706 -0.07812,-0.04706 -0.131764,-0.129881 -0.0527,-0.08377 -0.08,-0.2004698 -0.02729,-0.1167053 -0.02729,-0.2569399 0,-0.142117 0.02729,-0.2559988 0.02823,-0.1148229 0.08188,-0.1938814 0.05365,-0.08 0.131764,-0.1223523 0.07812,-0.043294 0.177881,-0.042353 0.110117,9.411e-4 0.191058,0.044235 0.08188,0.043294 0.135529,0.1261171 0.05459,0.081882 0.08094,0.2014108 0.02729,0.1185876 0.02635,0.2701163 z"
           style="fill:#ffffff;stroke:none"
           id="path278" /><path
           d="m 21.361364,9.0096151 v -0.034823 h -0.460233 v 0.034823 h 0.04424 q 0.07906,0 0.115764,0.042353 0.02729,0.027294 0.02729,0.1524698 v 0.7651725 l -0.81035,-0.9948187 h -0.323763 v 0.034823 q 0.05835,0 0.09694,0.017882 0.03953,0.017882 0.064,0.041412 0.02541,0.022588 0.03953,0.046117 0.01412,0.022588 0.02353,0.032941 v 0.9214073 q 0,0.113881 -0.02353,0.143058 -0.016,0.02729 -0.04612,0.03953 -0.02918,0.01223 -0.07341,0.01223 h -0.04612 v 0.03671 h 0.463057 v -0.03671 h -0.04612 q -0.07906,0 -0.115765,-0.04047 -0.02729,-0.032 -0.02729,-0.154352 V 9.2543198 l 0.877173,1.0682302 h 0.03482 V 9.2044376 q 0,-0.05647 0.0047,-0.091294 0.0047,-0.035765 0.016,-0.053647 0.016,-0.02447 0.04612,-0.036706 0.03106,-0.013176 0.07341,-0.013176 z"
           style="fill:#ffffff;stroke:none"
           id="path280" /></g><g
         aria-label="எ"
         id="text740-6-0"
         style="font-size:6.96553px;font-family:GIST-TMOTPadma;-inkscape-font-specification:'GIST-TMOTPadma, Normal';fill:#ffffff;fill-opacity:0.997821;stroke-width:0.578348;paint-order:markers stroke fill"><path
           d="M 8.3634697,5.873103 H 7.8362933 v 4.482699 L 7.1492635,9.6279589 V 5.873103 H 6.1425268 q -0.8808947,0 -1.4794949,0.816273 -0.5305775,0.7244423 -0.5305775,1.5441165 0,0.3639217 0.1326444,0.5986002 0.295899,0.5237752 0.9081037,0.5237752 0.4251422,0 0.7754594,-0.2550853 0.3843286,-0.2788933 0.3843286,-0.6904309 0,-0.2074694 -0.1122376,-0.4115377 -0.071424,-0.1292432 -0.2584864,-0.1292432 -0.2993001,0 -0.7958662,0.2924978 L 4.9181172,7.5600673 Q 5.234423,7.3287899 5.6255538,7.3287899 q 0.5237752,0 0.8094708,0.469357 0.2380796,0.3911308 0.2380796,0.9455163 0,0.5883968 -0.2822944,0.9523185 -0.3095035,0.4013343 -0.8808946,0.4013343 -0.4659559,0 -0.8842958,-0.3163059 -0.6836287,-0.520374 -0.9421152,-1.7515859 -0.06122,-0.2924978 -0.06122,-0.5713911 0,-0.9489174 0.7006343,-1.5305119 Q 4.9317218,5.4241528 5.70378,5.4241528 h 2.1835304 z"
           id="path283" /></g></g></g></svg>
