<?xml version="1.0" encoding="UTF-8" standalone="no"?>
<svg
   data-name="Layer 1"
   viewBox="0 0 100 100"
   x="0px"
   y="0px"
   version="1.1"
   id="svg10"
   sodipodi:docname="noun-email-1198070.svg"
   width="100"
   height="100"
   inkscape:version="1.2.2 (b0a8486541, 2022-12-01)"
   xmlns:inkscape="http://www.inkscape.org/namespaces/inkscape"
   xmlns:sodipodi="http://sodipodi.sourceforge.net/DTD/sodipodi-0.dtd"
   xmlns="http://www.w3.org/2000/svg"
   xmlns:svg="http://www.w3.org/2000/svg"
   xmlns:rdf="http://www.w3.org/1999/02/22-rdf-syntax-ns#"
   xmlns:cc="http://creativecommons.org/ns#"
   xmlns:dc="http://purl.org/dc/elements/1.1/">
  <defs
     id="defs14" />
  <sodipodi:namedview
     id="namedview12"
     pagecolor="#ffffff"
     bordercolor="#111111"
     borderopacity="1"
     inkscape:showpageshadow="0"
     inkscape:pageopacity="0"
     inkscape:pagecheckerboard="1"
     inkscape:deskcolor="#d1d1d1"
     showgrid="false"
     inkscape:zoom="4.44"
     inkscape:cx="50.112613"
     inkscape:cy="62.387387"
     inkscape:window-width="1440"
     inkscape:window-height="839"
     inkscape:window-x="0"
     inkscape:window-y="0"
     inkscape:window-maximized="1"
     inkscape:current-layer="svg10" />
  <title
     id="title2">mail50</title>
  <path
     d="M 50,0 A 50,50 0 1 0 100,50 50,50 0 0 0 50,0 Z M 72,33 50,49.46 28,33 Z m 3,32.2 A 1.82,1.82 0 0 1 72.93,67 H 27 A 1.81,1.81 0 0 1 25,65.08 Q 25,51.39 25,37.7 v -2.53 l 8.14,6.11 15.36,11.52 a 2.14,2.14 0 0 0 3,0 l 23.06,-17.31 0.38,-0.28 a 3.85,3.85 0 0 1 0.05,0.44 v 29.51 z"
     id="path4"
     style="fill:#4d5153;fill-opacity:1" />
  <metadata
     id="metadata1580">
    <rdf:RDF>
      <cc:Work
         rdf:about="">
        <dc:title>mail50</dc:title>
      </cc:Work>
    </rdf:RDF>
  </metadata>
</svg>
