<?xml version="1.0" encoding="UTF-8" standalone="no"?>
<!-- Created with Inkscape (http://www.inkscape.org/) -->

<svg
   width="1461.7598"
   height="206.08008"
   viewBox="0 0 1461.7598 206.08008"
   version="1.1"
   id="svg5"
   inkscape:version="1.2.2 (b0a8486541, 2022-12-01)"
   sodipodi:docname="slogan.svg"
   xmlns:inkscape="http://www.inkscape.org/namespaces/inkscape"
   xmlns:sodipodi="http://sodipodi.sourceforge.net/DTD/sodipodi-0.dtd"
   xmlns="http://www.w3.org/2000/svg"
   xmlns:svg="http://www.w3.org/2000/svg">
  <sodipodi:namedview
     id="namedview7"
     pagecolor="#ffffff"
     bordercolor="#111111"
     borderopacity="1"
     inkscape:showpageshadow="0"
     inkscape:pageopacity="0"
     inkscape:pagecheckerboard="1"
     inkscape:deskcolor="#d1d1d1"
     inkscape:document-units="mm"
     showgrid="false"
     inkscape:zoom="0.5946522"
     inkscape:cx="709.65852"
     inkscape:cy="125.28332"
     inkscape:window-width="1440"
     inkscape:window-height="839"
     inkscape:window-x="0"
     inkscape:window-y="0"
     inkscape:window-maximized="1"
     inkscape:current-layer="layer1" />
  <defs
     id="defs2" />
  <g
     inkscape:label="Layer 1"
     inkscape:groupmode="layer"
     id="layer1"
     transform="translate(612.13026,-3.6718294)">
    <path
       id="path1051"
       style="font-size:213.333px;line-height:0;font-family:'a Agreement Signature';-inkscape-font-specification:'a Agreement Signature, Normal';text-align:center;text-anchor:middle;fill:#ffffff;fill-opacity:0.38;stroke-width:0.5;paint-order:markers stroke fill"
       d="m -269.72986,3.6718294 c -2.13333,0 -4.69347,1.4940676 -7.4668,3.4140625 -1.92,1.2799968 -7.25302,13.0134141 -7.67969,14.0800781 -6.39998,15.786626 -16.42608,41.386946 -20.05273,58.240235 -1.92,8.533312 -5.33399,24.958735 -5.33399,37.332035 0,1.70665 -4.4e-4,3.62776 0.21289,5.12109 1.28,11.73331 5.54774,16 11.73438,16 13.00238,0 34.98862,-19.28777 45.88086,-29.75586 -1.32412,4.95751 -1.7207,8.77909 -1.7207,11.62109 0,5.75999 2.34493,7.4668 5.54492,7.4668 11.77717,0 26.91353,-11.6774 35.00586,-18.99219 -0.7201,3.55593 -1.4476,7.0978 -2.15235,10.67188 -0.42667,0.21333 -0.85306,0.42685 -1.0664,0.85351 -2.34666,3.83999 -3.19922,8.31991 -3.19922,13.22657 0,1.91999 0.21245,3.83977 0.42578,5.75976 -2.13333,11.94663 -4.69336,26.02816 -4.69336,38.82813 0,2.56 0.21441,4.9068 0.42773,7.4668 0,0.42666 1.06608,9.17187 4.05274,9.17187 2.98666,0 5.11969,-2.345 7.67969,-3.625 1.49333,-5.97331 2.56054,-13.86689 2.56054,-21.54687 0,-11.0933 -2.34589,-23.25398 -3.19922,-32.64063 0.85333,-4.69332 1.49282,-7.67954 2.13282,-11.51953 5.80071,-3.44417 24.9986,-3.50664 40.84765,-13.6543 -0.33972,1.70621 -0.52734,3.42333 -0.52734,5.1211 0,7.25331 7.25236,10.45312 13.65234,10.45312 15.14663,0 38.61432,-14.93463 45.6543,-21.97461 l -2.13476,-2.55859 c -6.61333,6.61331 -27.30596,19.62695 -39.89258,19.62695 -4.90666,0 -8.96094,-2.13392 -8.96094,-7.25391 0,-1.70666 0.64125,-4.26643 1.28125,-5.75976 6.61331,0 14.9322,-4.26659 17.49219,-13.226564 0.21334,-1.066664 0.42773,-2.132997 0.42773,-2.986328 0,-2.986659 -1.494,-5.333985 -5.33398,-5.333985 -0.85334,0 -1.49238,0.212449 -2.34571,0.425782 -7.13877,1.7071 -14.38804,9.399911 -17.81054,18.310545 -14.17979,10.98045 -31.00981,10.57139 -40.85742,11.34375 4.47998,-21.333278 9.60008,-42.24094 14.08007,-63.574218 0,-2.559993 0.64063,-4.266878 0.64063,-5.546875 0,-1.919995 -0.85426,-2.986328 -4.26758,-2.986328 -1.06667,0 -2.34608,-4.42e-4 -4.05273,0.212891 -0.85333,0 -2.98607,20.053511 -4.05274,28.160156 -1.77279,9.682147 -3.71562,19.290907 -5.66992,28.910154 -6.14967,6.08137 -20.48623,18.23633 -28.46289,18.23633 -2.55999,0 -4.05469,-1.70626 -4.05469,-4.90625 0,-2.56 1.06678,-6.18558 2.77344,-10.87891 0.64,-1.91998 0.85351,-3.62732 0.85351,-5.33398 0,-4.053322 -1.70607,-6.826172 -4.05273,-6.826172 -1.70666,0 -3.62777,1.706886 -5.12109,5.546875 -0.49111,1.391457 -0.82129,2.873327 -1.0586,4.236327 -8.4509,8.32734 -32.80846,28.18945 -44.16797,28.18945 -4.90665,0 -7.03906,-3.84025 -7.03906,-10.24023 0,-2.55999 0.21289,-4.90706 0.21289,-6.40039 1.49334,-10.23997 4.69303,-26.453313 7.67969,-38.613282 9.81331,-17.066622 21.9735,-39.89192 28.16016,-57.171875 0.21332,-1.279997 1.91992,-5.761389 1.91992,-8.7480473 0,-4.0533228 -3.19959,-5.9726563 -4.90625,-5.9726563 z m 662.18555,0 c -2.13333,0 -4.69152,1.4940676 -7.46484,3.4140625 -1.91999,1.2799968 -7.25498,13.0134141 -7.68164,14.0800781 -6.39999,15.786626 -16.42608,41.386946 -20.05274,58.240235 -1.91999,8.533312 -5.33398,24.958735 -5.33398,37.332035 0,1.70665 0.002,3.62776 0.21484,5.12109 1.28,11.73331 5.54577,16 11.73242,16 13.00114,0 34.98754,-19.28317 45.88086,-29.75195 -1.32332,4.95571 -1.7207,8.77588 -1.7207,11.61718 0,5.75999 2.34688,7.4668 5.54687,7.4668 11.77794,0 26.91394,-11.67945 35.00586,-18.99414 -0.72022,3.55655 -1.44747,7.09913 -2.15234,10.67383 -0.42667,0.21333 -0.85307,0.42685 -1.06641,0.85351 -2.34665,3.83999 -3.20117,8.31991 -3.20117,13.22657 0,1.91999 0.2144,3.83977 0.42774,5.75976 -2.13333,11.94663 -4.69336,26.02816 -4.69336,38.82813 0,2.56 0.21244,4.9068 0.42578,7.4668 0,0.42666 1.06803,9.17187 4.05469,9.17187 2.98665,0 5.11969,-2.345 7.67968,-3.625 1.49333,-5.97331 2.5586,-13.86689 2.5586,-21.54687 0,-11.0933 -2.34589,-23.25398 -3.19922,-32.64063 0.85333,-4.69332 1.49281,-7.67954 2.13281,-11.51953 5.80044,-3.444 24.99903,-3.50614 40.84766,-13.65235 -0.33949,1.7056 -0.52735,3.422 -0.52735,5.11915 0,7.25331 7.25432,10.45312 13.6543,10.45312 13.57501,0 33.79599,-11.97979 42.92188,-19.53711 2.46966,7.45699 3.30983,11.89817 4.65039,19.75 0,1.49333 0.21289,3.20003 0.21289,4.69336 v 0.42578 c -2.77332,1.70667 -5.33303,3.20003 -7.67969,4.69336 -3.62666,2.34666 -10.24023,6.82728 -10.24023,11.94727 0,3.41332 2.56114,5.97265 9.81445,5.97265 8.31998,0 15.57333,-12.15934 16,-21.97265 10.37638,-6.6831 23.06156,-15.2491 32.2207,-23.07227 -0.64226,2.7839 -1.28975,5.56766 -1.92773,8.35156 -0.64,4.90666 -1.06641,9.38702 -1.06641,13.01368 0,14.07996 4.90684,19.62695 12.16016,19.62695 15.13168,0 40.89194,-23.22602 57.52148,-39.45899 -0.59174,2.3904 -0.98828,5.01247 -0.98828,8.09961 0,6.82666 2.13252,11.51953 9.8125,11.51953 2.34666,0 4.47995,-0.63929 6.61328,-1.27929 12.15997,-3.62666 16.8544,-12.58661 27.73438,-17.91992 -1.92,9.17331 -5.33421,32.63919 -10.88086,53.11914 -15.78663,8.95998 -31.35938,21.76095 -31.35938,36.26758 0,4.05332 2.55908,8.74609 7.03907,8.74609 16.42662,0 26.88037,-21.9731 33.70703,-44.37305 4.90665,-2.77333 9.81323,-5.12039 13.22656,-6.40039 11.51997,-4.26665 25.38691,-6.61358 37.54688,-10.24023 l 1.91992,-1.49219 c -1.28,-0.42667 -2.77293,-0.64063 -4.90625,-0.64063 -10.02664,0 -27.73283,5.12014 -34.13282,7.4668 -3.19999,1.28 -7.46772,2.77336 -11.73437,4.69336 3.41333,-12.58664 5.97303,-24.74775 7.67969,-32.42773 2.13332,-8.95997 5.75976,-16.42638 5.75976,-23.67969 0,-1.92 -0.85318,-3.19922 -3.83984,-3.19922 -2.77333,0 -5.97197,0.63967 -7.25195,2.98633 -1.92,3.41332 -20.90671,21.11914 -32,21.11914 -2.34667,0 -3.83985,-0.85345 -3.83985,-2.77344 0,-0.64 0.21245,-1.27992 0.42578,-1.91992 1.28,-3.84 4.054,-11.94517 5.33399,-15.78516 0.64,-1.92 1.49218,-4.907244 1.49218,-7.253903 0,-2.773327 -1.06714,-4.906251 -4.48046,-4.906251 -5.54666,0 -7.03838,2.560402 -8.31836,6.400391 l -1.06641,3.625003 c -0.3892,1.12436 -0.81142,2.22028 -1.22656,3.32226 -16.9738,16.80366 -43.02214,40.41211 -55.94727,40.41211 -4.69331,0 -7.89453,-3.19999 -7.89453,-11.30664 0,-3.83998 0.64144,-8.74739 2.13477,-14.7207 4.90665,-19.626622 9.59832,-39.252735 14.93164,-58.666018 21.5466,-2.133327 10.8806,-0.639778 34.56054,-5.759765 v -0.212891 c -13.22663,-0.639998 -15.14678,-0.853516 -18.77343,-0.853516 -1.28,0 -7.46721,-4.42e-4 -13.86719,0.212891 l 5.12109,-17.919922 c 0.64,-2.559993 4.05274,-13.867041 4.05274,-17.707031 0,-3.626658 -0.85312,-7.253907 -5.75977,-7.253907 -2.98667,0 -5.11951,3.841282 -6.82617,5.97461 -2.34666,2.986659 -1.921,13.225201 -2.34766,20.478516 l -4.47851,16.640625 h -5.1211 c -11.0933,0 -22.39869,-0.852374 -32.63867,-2.345703 -2.13333,-1.066664 -4.05461,-1.920107 -5.97461,-2.773438 -2.98666,-1.279997 -8.74594,-3.414062 -12.58594,-3.414062 -0.85333,0 -2.133,0.21289 -2.98632,0.21289 0,2.346661 -0.85352,4.907246 -0.85352,7.253906 0,5.119987 3.83969,4.480654 7.67969,5.333985 5.97331,1.493329 12.16056,2.131928 18.56054,2.558594 12.15997,5.759985 22.18674,16.000887 25.38672,26.880859 -1.3949,5.579635 -2.72264,11.158647 -4.02539,16.738277 -8.53554,7.85278 -22.06592,16.45205 -33.94922,23.58204 -1.27999,-11.0933 -2.98617,-14.93342 -6.82617,-25.38672 2.77333,-3.626665 6.1875,-10.880274 6.1875,-14.933597 0,-5.546652 -2.13498,-9.814453 -7.68164,-9.814453 -4.69331,0 -9.8125,3.840509 -9.8125,9.173828 0,6.514291 2.90079,12.05186 4.65039,17.179692 -7.96084,6.90492 -26.5066,18.02148 -38.14453,18.02148 -4.90665,0 -8.95898,-2.13392 -8.95898,-7.25391 0,-1.70666 0.63929,-4.26643 1.27929,-5.75976 6.61332,0 14.93415,-4.26659 17.49414,-13.226564 0.21333,-1.066664 0.42578,-2.132997 0.42578,-2.986328 0,-2.986659 -1.49204,-5.333985 -5.33203,-5.333985 -0.85333,0 -1.49432,0.212449 -2.34765,0.425782 -7.13816,1.70695 -14.38377,9.398956 -17.80664,18.308595 -14.1805,10.98314 -31.01098,10.57328 -40.85938,11.3457 4.48,-21.333278 9.60009,-42.24094 14.08008,-63.574218 0,-2.559993 0.63867,-4.266878 0.63867,-5.546875 0,-1.919995 -0.8523,-2.986328 -4.26562,-2.986328 -1.06667,0 -2.34607,-4.42e-4 -4.05274,0.212891 -0.85333,0 -2.98803,20.053511 -4.05469,28.160156 -1.77278,9.682147 -3.71366,19.290907 -5.66796,28.910154 -6.1496,6.08133 -20.48814,18.23633 -28.46485,18.23633 -2.55999,0 -4.05273,-1.70626 -4.05273,-4.90625 0,-2.56 1.06677,-6.18558 2.77343,-10.87891 0.64,-1.91998 0.85352,-3.62732 0.85352,-5.33398 0,-4.053322 -1.70803,-6.826172 -4.05469,-6.826172 -1.70666,0 -3.62581,1.706886 -5.11914,5.546875 -0.4911,1.391457 -0.82324,2.873327 -1.06054,4.236327 -8.451,8.3274 -32.80656,28.18945 -44.16602,28.18945 -4.90666,0 -7.04102,-3.84025 -7.04102,-10.24023 0,-2.55999 0.21485,-4.90706 0.21485,-6.40039 1.49333,-10.23997 4.69303,-26.453313 7.67968,-38.613282 9.81331,-17.066622 21.97351,-39.89192 28.16016,-57.171875 0.21333,-1.279997 1.91992,-5.761389 1.91992,-8.7480473 0,-4.0533228 -3.20154,-5.9726563 -4.9082,-5.9726563 z m 385.70703,0 c -2.13332,0 -4.69346,1.4940676 -7.46679,3.4140625 -1.92,1.2799968 -7.25302,13.0134141 -7.67969,14.0800781 -6.39998,15.786626 -16.42608,41.386946 -20.05273,58.240235 -1.92,8.533312 -5.33399,24.958735 -5.33399,37.332035 0,1.70665 -4.4e-4,3.62776 0.21289,5.12109 1.28,11.73331 5.54773,16 11.73438,16 11.28033,0 29.30617,-14.51844 41.01953,-25.21484 -0.178,1.22496 -0.27344,2.45175 -0.27344,3.66797 0,7.25331 7.25236,10.45312 13.65235,10.45312 15.14662,0 38.61431,-14.93463 45.65429,-21.97461 l -2.13281,-2.55859 c -6.61331,6.61331 -27.30789,19.62695 -39.89453,19.62695 -4.90666,0 -8.95899,-2.13392 -8.95899,-7.25391 0,-1.70666 0.6393,-4.26643 1.2793,-5.75976 6.61332,0 14.93414,-4.26659 17.49414,-13.226564 0.21333,-1.066664 0.42578,-2.132997 0.42578,-2.986328 0,-2.986659 -1.494,-5.333985 -5.33398,-5.333985 -0.85333,0 -1.49238,0.212449 -2.3457,0.425782 -7.24491,1.732476 -14.60008,9.630144 -17.95704,18.708985 -10.55331,9.40579 -30.20532,24.38476 -40.07031,24.38476 -4.90665,0 -7.03906,-3.84025 -7.03906,-10.24023 0,-2.55999 0.21289,-4.90706 0.21289,-6.40039 1.49333,-10.23997 4.69303,-26.453313 7.67969,-38.613282 9.81331,-17.066622 21.9735,-39.89192 28.16015,-57.171875 0.21333,-1.279997 1.91992,-5.761389 1.91992,-8.7480473 0,-4.0533228 -3.19958,-5.9726563 -4.90625,-5.9726563 z m -1354.0254,2.7734375 c -8.95997,0 -24.31973,14.9328211 -28.37305,18.1328131 -2.13332,1.919995 -7.89453,5.54717 -7.89453,9.173828 0,0.426665 0.002,0.852631 0.21485,1.279297 l 4.05273,-1.705078 c 0.63999,0 1.49326,-1.708101 1.91992,-2.134766 6.18666,-6.186651 13.86646,-12.158684 21.75977,-16.638672 2.34666,-1.49333 4.05442,-2.347656 5.12109,-2.347656 1.49333,0 1.91992,1.921028 1.91992,7.041015 0,8.319979 -1.49343,13.012054 -2.77343,21.332032 -5.75999,28.159927 -15.14689,56.107655 -21.54688,84.26758 -0.42667,1.70667 -0.64062,3.83978 -0.64062,5.75976 0,1.70667 0.42614,3.19922 2.13281,3.19922 1.27999,0 2.77356,-0.63904 5.54687,-2.3457 1.49334,-0.85334 1.06616,-3.20003 2.13282,-4.69336 2.98666,-4.69332 6.8279,-8.53464 12.58789,-10.66797 6.61331,-2.56 12.15916,-3.83984 21.11914,-3.83984 10.66664,0 20.69318,2.9867 31.14648,4.69336 12.37331,1.92 2.98678,-0.42611 14.08008,2.56054 l 0.21485,-0.21289 c -1.91999,-1.06666 -3.62689,-2.3474 -5.54688,-3.41406 -2.13333,-1.28 -4.05417,-2.98607 -6.1875,-4.05273 -10.02664,-5.11999 -20.26644,-6.18618 -33.06641,-6.82618 h -1.27929 c -14.2933,0 -26.24013,3.83886 -34.77344,12.79883 5.11998,-27.093256 16.21205,-51.625115 21.33203,-77.011717 1.49333,-8.319977 3.20117,-15.360335 3.20117,-24.320312 0,-7.4666472 -2.56039,-10.0273441 -6.40039,-10.0273441 z m 721.70509,4.0527341 c -2.98666,0 -5.11952,3.841282 -6.82618,5.97461 -2.34665,2.986659 -1.91904,13.225201 -2.3457,20.478516 l -4.48047,16.640625 h -5.12109 c -11.0933,0 -22.3987,-0.852374 -32.638673,-2.345703 -2.133328,-1.066664 -4.054615,-1.920107 -5.97461,-2.773438 -2.986659,-1.279997 -8.745948,-3.414062 -12.585937,-3.414062 -0.853332,0 -2.132997,0.21289 -2.986329,0.21289 0,2.346661 -0.853515,4.907246 -0.853515,7.253906 0,5.119987 3.839698,4.480654 7.679687,5.333985 5.973318,1.493329 12.160564,2.131928 18.560547,2.558594 12.15997,5.759985 22.18673,16.000887 25.38672,26.880859 -1.37894,5.515778 -2.69198,11.031098 -3.98047,16.546877 -4.8335,3.75547 -13.11523,7.3457 -19.27344,7.3457 -5.11998,0 -10.026752,-1.27878 -14.080075,-3.41211 1.279996,-4.05331 2.134765,-8.107716 2.134765,-11.734373 0,-7.893313 -4.480433,-14.933594 -11.09375,-14.933594 -2.34666,0 -4.692844,0.854327 -6.826172,2.347657 -0.213332,0 -0.640183,-0.212891 -0.853515,-0.212891 -3.626658,0 -7.253391,4.479953 -9.386719,6.613281 -1.066664,1.279997 -2.134508,2.559405 -3.201172,4.052735 -2.511516,3.653112 -4.710421,7.857885 -6.21875,12.316405 -9.526619,6.36731 -27.040788,14.77734 -35.167969,14.77734 -2.133328,0 -2.773438,-1.70759 -2.773438,-4.26757 0,-2.98666 0.853516,-7.04025 0.853516,-10.24024 0,-4.90665 -0.638894,-10.026826 -6.1855471,-12.160154 -0.6399984,-0.213333 -1.0670329,-0.212891 -1.7070313,-0.212891 -4.0533227,0 -8.3208661,4.907249 -10.8808594,7.253905 -5.3333202,5.75999 -11.9450932,9.59877 -17.7050782,14.71875 0.853331,-2.56 1.918595,-5.11969 2.558594,-7.67969 1.279996,-4.05331 3.414062,-10.238943 3.414062,-15.572262 0,-4.906654 -2.132593,-10.240234 -7.892578,-10.240234 -0.639998,0 -1.494767,0.212891 -2.134766,0.212891 -1.706662,12.586634 -3.413289,25.173065 -6.613281,39.679685 -0.213333,0.64 -0.638672,2.56136 -0.638672,4.05469 0,2.98666 3.412036,3.19896 5.332031,4.26562 1.706663,-1.27999 3.627323,-2.13362 5.333985,-3.62695 0.639998,-0.64 5.759323,-7.03861 5.972656,-7.25195 5.119986,-6.39998 10.8804941,-10.66713 20.4804691,-15.78711 0.2133328,1.49333 0.4257813,3.62562 0.4257813,4.26562 0,5.97333 -0.8515626,10.87965 -0.8515626,14.29297 0,4.05333 1.2793352,6.1875 5.9726564,6.1875 10.0230988,0 29.1720968,-9.96397 40.8320318,-17.59765 -0.463491,2.28659 -0.726563,4.6091 -0.726563,6.93164 0,8.53331 3.839993,14.93359 11.306641,14.93359 9.599975,0 18.13392,-8.53391 23.253906,-18.56055 3.413325,1.06666 7.466651,1.70704 11.306641,1.70704 7.845073,0 17.306483,-3.38517 23.898433,-7.55665 -0.71336,3.08736 -1.43115,6.17437 -2.13867,9.26172 -0.64,4.90666 -1.0664,9.38702 -1.0664,13.01368 0,14.07996 4.90684,19.62695 12.16015,19.62695 17.27996,0 48.42672,-30.29389 64,-45.86719 l -2.13281,-2.55859 c -16.85328,16.85328 -44.58738,42.45312 -58.02734,42.45312 -4.69333,0 -7.89258,-3.19999 -7.89258,-11.30664 0,-3.83998 0.63948,-8.74739 2.13281,-14.7207 4.90666,-19.626622 9.60027,-39.252735 14.9336,-58.666018 21.5466,-2.133327 10.87865,-0.639778 34.55859,-5.759765 v -0.212891 c -13.22663,-0.639998 -15.14678,-0.853516 -18.77344,-0.853516 -1.28,0 -7.46525,-4.42e-4 -13.86523,0.212891 l 5.11914,-17.919922 c 0.64,-2.559993 4.05273,-13.867041 4.05273,-17.707031 0,-3.626658 -0.85311,-7.253907 -5.75976,-7.253907 z m -415.99805,2.988282 c -2.77333,12.586634 -11.09453,28.798058 -19.20118,43.304688 5.33332,-14.719963 13.44119,-33.704713 19.20118,-43.304688 z m 662.18555,0 c -2.77333,12.586634 -11.09257,28.798058 -19.19922,43.304688 5.33332,-14.719963 13.43923,-33.704713 19.19922,-43.304688 z m 385.70703,0 c -2.77332,12.586634 -11.09453,28.798058 -19.20117,43.304688 5.33332,-14.719963 13.44119,-33.704713 19.20117,-43.304688 z m -1264.2129,40.746094 -5.12109,7.251953 c -0.21333,0 -0.63867,0.214402 -0.63867,0.427734 1.70665,6.399984 4.0524,8.532246 7.03906,10.878907 l 1.0664,-0.212891 c 2.55999,-4.266655 1.493,-2.133294 2.98633,-6.613281 0,-0.853331 0.21485,-1.492372 0.21485,-2.345703 -0.21333,-3.839991 -2.34689,-7.680057 -5.54688,-9.386719 z m 244.69336,0 -5.12109,7.251953 c -0.21333,0 -0.63867,0.214402 -0.63867,0.427734 1.70666,6.399984 4.0524,8.532246 7.03906,10.878907 l 1.06641,-0.212891 c 2.55999,-4.266655 1.49299,-2.133294 2.98632,-6.613281 0,-0.853331 0.21485,-1.492372 0.21485,-2.345703 -0.21333,-3.839991 -2.34688,-7.680057 -5.54688,-9.386719 z m 662.18556,0 -5.11914,7.251953 c -0.21333,0 -0.64063,0.214402 -0.64063,0.427734 1.70667,6.399984 4.05241,8.532246 7.03906,10.878907 l 1.06836,-0.212891 c 2.55999,-4.266655 1.493,-2.133294 2.98633,-6.613281 0,-0.853331 0.21289,-1.492372 0.21289,-2.345703 -0.21333,-3.839991 -2.34688,-7.680057 -5.54687,-9.386719 z m -290.13282,6.40039 c -1.70667,6.613317 -3.19959,13.226528 -4.90625,19.839844 -3.62666,-7.253314 -9.60109,-14.0803 -16.42773,-19.626953 h 5.54687 c 5.33333,0 10.02712,4.42e-4 15.78711,-0.212891 z m 475.09376,0 c -1.70667,6.613317 -3.20155,13.226528 -4.90821,19.839844 -3.62665,-7.253314 -9.59914,-14.0803 -16.42578,-19.626953 h 5.54688 c 5.33331,0 10.02712,4.42e-4 15.78711,-0.212891 z M -427.80994,84.097611 c -7.67997,0 -10.2398,8.107903 -10.45313,12.587891 0.21333,1.279996 0.21289,2.559848 0.21289,3.839848 0,11.30663 -5.75911,22.61406 -11.73242,30.7207 0,-0.42666 -0.21289,-1.06703 -0.21289,-1.70703 0,-1.70667 0.42578,-3.62802 0.42578,-4.05469 0.64,-11.7333 1.70571,-15.78641 2.3457,-28.373047 v -1.492187 c 0,-3.626657 -0.85185,-6.828125 -4.47851,-6.828125 -7.03998,0 -5.33311,7.680978 -5.75977,13.654299 -0.01,0.15663 -0.0141,0.26946 -0.0234,0.42187 -6.30498,6.17072 -20.28621,17.92383 -28.13672,17.92383 -2.56,0 -4.05469,-1.70626 -4.05469,-4.90625 0,-2.56 1.06678,-6.18558 2.77344,-10.87891 0.64,-1.91998 0.85351,-3.62732 0.85351,-5.33398 0,-4.053322 -1.70607,-6.826172 -4.05273,-6.826172 -1.70667,0 -3.62777,1.706886 -5.1211,5.546875 -1.27998,3.626657 -1.49174,7.892317 -1.70507,8.958987 -1.49333,5.33331 -1.91993,9.38639 -1.91993,12.37304 0,5.75999 2.34494,7.4668 5.54493,7.4668 12.04796,0 27.63019,-12.23179 35.57031,-19.5 -0.23232,5.78416 -0.0733,8.29247 -0.58203,16.94141 0,0.85333 -0.21485,2.13256 -0.21485,3.19922 0,4.90665 1.06778,11.51953 5.1211,11.51953 15.99996,-2.98667 15.36041,-17.27897 22.40039,-31.57227 4.69331,2.98667 10.87842,5.11914 17.70508,5.11914 4.15494,0 8.45709,-0.82559 12.4707,-2.67968 -0.47451,2.02453 -0.73633,4.073 -0.73633,6.09375 0,7.25331 7.25236,10.45312 13.65235,10.45312 15.14662,0 38.61431,-14.93463 45.65429,-21.97461 l -2.13281,-2.55859 c -6.61332,6.61331 -27.3079,19.62695 -39.89453,19.62695 -4.90666,0 -8.95899,-2.13392 -8.95899,-7.25391 0,-1.70666 0.6393,-4.26643 1.2793,-5.75976 6.61331,0 14.93415,-4.26659 17.49414,-13.226564 0.21334,-1.066664 0.42578,-2.132997 0.42578,-2.986328 0,-2.986659 -1.49398,-5.333985 -5.33398,-5.333985 -0.85333,0 -1.49237,0.212449 -2.3457,0.425782 -7.00238,1.67448 -14.1121,9.107856 -17.61133,17.800785 -4.22106,2.5868 -8.93655,3.5332 -13.53516,3.5332 -7.25331,0 -13.44064,-2.55914 -16.64062,-5.11914 1.27999,-3.83999 4.48046,-11.521524 4.48046,-16.214845 0,-2.133328 -0.85343,-3.626954 -2.77343,-3.626954 z m 980.26563,0 c 1.49333,0 2.77344,2.561727 2.77344,5.761719 0,2.559994 -0.63861,5.546545 -2.55859,8.533203 -1.28,-3.839989 -2.56055,-8.107533 -2.56055,-10.880859 0,-2.133328 0.63904,-3.414063 2.3457,-3.414063 z m -291.83985,1.707032 c -19.62661,0 -39.03906,18.560187 -39.03906,28.160157 0,4.47998 3.83926,8.10742 7.89258,8.10742 15.35996,-2.55999 21.97465,-9.81434 37.97461,-18.34766 0.21333,0 0.42578,0.21441 0.42578,0.42774 0,0.64 -1.06747,2.13211 -1.49414,3.41211 -0.42666,1.49333 -1.06596,2.98802 -1.2793,4.05469 -1.27998,4.47998 -1.91992,8.10558 -1.91992,10.8789 0,7.03999 3.41367,9.81446 8.32031,9.81446 14.71997,0 44.79913,-23.89483 48.42579,-27.52149 l -2.13282,-2.55859 c -5.97331,5.97331 -30.71945,22.61328 -40.74609,22.61328 -1.70666,0 -2.77344,-2.56128 -2.77344,-5.97461 0,-6.82665 3.83985,-12.15968 3.83985,-18.986329 0,-3.626656 -1.28048,-6.399064 -4.48047,-7.039063 -1.91999,-4.906654 -6.82702,-7.041015 -13.01368,-7.041015 z M 77.789671,89.644486 c 2.559994,0 5.333985,4.053658 5.333985,8.320313 0,2.559991 -0.42685,5.120141 -0.853516,7.466801 -4.479988,-3.19999 -7.253906,-7.466656 -7.253906,-11.306645 0,-3.199992 1.280108,-4.480469 2.773437,-4.480469 z m 181.546879,2.560547 c 2.98667,0 5.54724,0.853885 7.2539,2.560547 l -3.20117,1.919922 c -13.22662,9.813308 -17.91959,18.133358 -32.21289,20.693358 -1.49333,0 -4.05273,-0.21282 -4.05273,-2.13281 0,-3.2 16.21293,-23.041017 32.21289,-23.041017 z m -641.2793,2.560547 c 0.63999,0 1.0664,0.425524 1.0664,1.492188 0,5.973322 -4.48006,8.106982 -9.38672,8.320312 2.77333,-5.546654 6.61366,-9.8125 8.32032,-9.8125 z m 231.25195,0 c 0.64,0 1.06836,0.425524 1.06836,1.492188 0,5.973322 -4.48006,8.106982 -9.38672,8.320312 2.77333,-5.546654 6.6117,-9.8125 8.31836,-9.8125 z m 662.18751,0 c 0.64,0 1.0664,0.425524 1.0664,1.492188 0,5.973322 -4.48007,8.106982 -9.38672,8.320312 2.77332,-5.546654 6.61366,-9.8125 8.32032,-9.8125 z m 298.45312,0 c 0.64,0 1.06641,0.425524 1.06641,1.492188 0,5.973322 -4.48006,8.106982 -9.38672,8.320312 2.77333,-5.546654 6.61366,-9.8125 8.32031,-9.8125 z m -743.67969,5.54688 c 2.133328,5.54665 6.826579,10.0255 13.226563,12.79882 -4.693322,9.17331 -12.586787,14.29297 -18.773438,14.29297 -1.919995,0 -3.199219,-1.49159 -3.199219,-5.54492 0,-5.33331 5.119437,-15.36022 8.746094,-21.54687 z M -96.92908,111.6191 c -2.773326,0.21333 -5.33398,2.98643 -5.33398,5.75976 0.42666,2.55999 2.13281,5.76014 2.13281,7.4668 v 0.42578 c 0,3.83999 -3.41229,4.48113 -4.26563,9.81445 l 0.85352,0.42578 c 5.546646,-1.70665 10.453308,-9.81416 11.306639,-17.49414 0,-2.77332 -1.493367,-6.1851 -4.693359,-6.39843 z M 552.2428,138.498 c -1.70666,4.69333 -5.11995,6.82617 -6.61328,6.82617 -0.42667,0 -0.63867,8.9e-4 -0.63867,-0.42578 0,-1.06666 2.9853,-3.84039 7.25195,-6.40039 z m -769.06641,21.97461 c 0.21334,2.98666 0.64062,5.97189 0.64062,9.17188 0,4.47998 -0.42596,9.17475 -1.27929,13.4414 -0.42666,-2.55999 -0.42774,-5.33454 -0.42774,-7.89453 0,-4.90665 0.42641,-9.81209 1.06641,-14.71875 z m 662.1875,0 c 0.21334,2.98666 0.63868,5.97189 0.63868,9.17188 0,4.47998 -0.42597,9.17475 -1.2793,13.4414 -0.42667,-2.55999 -0.42578,-5.33454 -0.42578,-7.89453 0,-4.90665 0.42641,-9.81209 1.0664,-14.71875 z m 244.47852,12.58594 c -4.90665,15.35995 -11.09258,27.30664 -19.19922,27.30664 -0.21333,0 -0.42578,-0.21395 -0.42578,-0.64062 0,-9.17332 8.95836,-18.98604 19.625,-26.66602 z" />
  </g>
</svg>
