<?xml version="1.0" encoding="UTF-8" standalone="no"?>
<!-- Created with Inkscape (http://www.inkscape.org/) -->

<svg
   width="200"
   height="200"
   viewBox="0 0 200 200"
   version="1.1"
   id="svg5"
   inkscape:version="1.2.2 (b0a8486541, 2022-12-01)"
   sodipodi:docname="Ethan Alan Logo (with background).svg"
   xmlns:inkscape="http://www.inkscape.org/namespaces/inkscape"
   xmlns:sodipodi="http://sodipodi.sourceforge.net/DTD/sodipodi-0.dtd"
   xmlns="http://www.w3.org/2000/svg"
   xmlns:svg="http://www.w3.org/2000/svg">
  <sodipodi:namedview
     id="namedview7"
     pagecolor="#ffffff"
     bordercolor="#111111"
     borderopacity="1"
     inkscape:showpageshadow="0"
     inkscape:pageopacity="0"
     inkscape:pagecheckerboard="1"
     inkscape:deskcolor="#d1d1d1"
     inkscape:document-units="mm"
     showgrid="false"
     showguides="false"
     inkscape:zoom="2.8284274"
     inkscape:cx="46.492266"
     inkscape:cy="91.039989"
     inkscape:window-width="1680"
     inkscape:window-height="989"
     inkscape:window-x="0"
     inkscape:window-y="0"
     inkscape:window-maximized="1"
     inkscape:current-layer="layer1" />
  <defs
     id="defs2">
    <rect
       x="181.23186"
       y="368.88733"
       width="441.03793"
       height="350.75418"
       id="rect236" />
  </defs>
  <g
     inkscape:label="Layer 1"
     inkscape:groupmode="layer"
     id="layer1">
    <text
       xml:space="preserve"
       transform="scale(0.26458333)"
       id="text234"
       style="font-weight:300;font-size:13.3333px;line-height:0;font-family:'Frank Ruhl Libre';-inkscape-font-specification:'Frank Ruhl Libre, Light';text-align:center;white-space:pre;shape-inside:url(#rect236);display:inline;fill:#ff0000;stroke-width:10;paint-order:markers stroke fill" />
    <path
       id="path4419"
       style="fill:#242525;stroke-width:20;paint-order:markers stroke fill"
       d="M 41.074337,0 H 158.92566 C 181.68085,0 200,18.319154 200,41.074337 V 158.92566 C 200,181.68085 181.68085,200 158.92566,200 H 41.074337 C 18.319154,200 0,181.68085 0,158.92566 V 41.074337 C 0,18.319154 18.319154,0 41.074337,0 Z" />
    <path
       d="m 93.081296,91.269301 -4.324646,-4.41291 c -5.295476,-5.295455 -8.8552,-9.649522 -10.679195,-13.06216 -2.118191,-4.118715 -3.177286,-9.090573 -3.177286,-14.915576 0,-5.648514 1.853417,-10.855725 5.56025,-15.621653 3.177264,-4.059872 5.825002,-6.089797 7.943192,-6.089797 1.117939,0 1.676908,0.853164 1.676908,2.559473 0,0.176445 -0.411861,0.853164 -1.235604,2.029946 -0.7649,1.176761 -1.14736,2.177013 -1.14736,3.000756 0,2.941933 1.941681,6.589923 5.825023,10.94399 3.000777,3.000777 6.001532,5.97211 9.002312,8.914044 8.31813,8.368186 16.72529,16.648213 25.01813,25.041478 0.52894,0.515038 2.07572,0.532789 2.48341,-0.0358 5.24797,-6.526441 10.41987,-12.957987 15.64368,-19.454455 0.39185,-0.556279 0.32011,-1.919059 -0.52228,-2.522913 -2.90069,-2.275212 -5.35794,-4.912211 -7.17234,-8.041138 -1.00027,-2.059347 -1.5004,-4.736485 -1.5004,-8.031457 0,-5.707337 2.08877,-10.76746 6.26633,-15.180371 3.35379,-3.64799 6.20746,-5.471985 8.561,-5.471985 1.0591,0 1.58865,0.55897 1.58865,1.676908 0,0.235352 -0.147,0.500126 -0.44128,0.794321 -0.2942,0.294196 -0.44129,0.853165 -0.44129,1.676887 0,2.883111 3.17727,6.619366 9.53184,11.208764 7.59017,5.530828 11.38527,12.532612 11.38527,21.005373 0,5.883867 -1.29445,10.414422 -3.88334,13.591707 -2.00053,2.471229 -4.17756,3.706833 -6.53108,3.706833 -1.29447,0 -2.47123,-1.000252 -3.53033,-3.000755 -1.60092,-3.011516 -3.81437,-5.562072 -6.1877,-7.886658 -0.54914,-0.503219 -1.69662,-0.320821 -2.28874,0.394661 -5.37165,6.636142 -10.7431,13.272432 -16.11475,19.908553 -0.49316,0.575639 -0.41779,2.254114 0.0769,2.639689 13.49023,13.909014 28.4506,29.382204 41.94083,43.291194 5.29547,5.3543 8.88462,9.70837 10.76746,13.06216 2.23585,4.11872 3.35379,9.09057 3.35379,14.9156 0,5.64849 -1.91226,10.8557 -5.73676,15.62163 -3.23613,4.05987 -7.22883,7.00314 -9.34702,7.00314 -1.0591,0 -2.10067,-0.93181 -1.58864,-2.55947 0.38123,-1.21188 1.86233,-2.15359 2.4629,-3.03154 0.79242,-1.15841 1.14736,-2.20643 1.14736,-3.08902 0,-2.88309 -1.94168,-6.5311 -5.82502,-10.94399 l -9.00231,-9.00231 -65.144901,-66.308527 m -6.193674,13.901817 c -2.067142,5.66014 -3.722444,11.18052 -3.722444,13.06336 0,5.11897 6.303353,10.04253 13.540489,18.75065 7.23716,8.64927 11.24177,13.44294 11.57036,18.55136 0.25922,4.02982 -0.84643,8.25325 -4.82799,11.62385 -2.82397,2.45561 -7.84362,3.61147 -11.650047,4.14811 0,0 -14.493018,1.94969 -22.097406,-1.46068 -1.100061,-0.53044 -2.998362,-1.89216 -2.703573,-4.17464 0.466192,-1.86504 2.196436,-0.61705 3.674403,-0.32652 5.879673,0.87293 10.156405,-3.24962 10.156405,-7.42715 0,-2.05937 -1.765152,-6.35458 -5.295476,-12.88566 -3.471481,-6.58992 -7.215848,-13.9699 -7.215848,-17.97093 0,-4.61882 2.293131,-11.57407 5.983697,-18.91174"
       style="font-weight:300;font-size:85.3333px;font-family:'Frank Ruhl Libre';-inkscape-font-specification:'Frank Ruhl Libre, Light';text-align:center;letter-spacing:-34.18px;text-anchor:middle;white-space:pre;fill:#ff5100;fill-opacity:1;stroke-width:21.1819;paint-order:markers stroke fill"
       id="path4416"
       sodipodi:nodetypes="cccscsscscccccccscsssscscscccccccscssssccccscscscccscsc" />
    <path
       d="M 93.052891,91.261019 109.21456,71.290933 m 0,0 0.81275,-1.008471 c 0.40345,-0.613618 0.26407,-1.460492 -0.75245,-2.234457 -2.90069,-2.275212 -5.35792,-4.912211 -7.17232,-8.041117 -1.00025,-2.059347 -1.5004,-4.736506 -1.5004,-8.031457 0,-5.707358 2.08877,-10.767482 6.26631,-15.180371 3.35381,-3.64799 6.20748,-5.471985 8.56102,-5.471985 1.0591,0 1.58865,0.55897 1.58865,1.676908 0,0.235331 -0.14701,0.500105 -0.44129,0.794321 -0.29419,0.294175 -0.4413,0.853144 -0.4413,1.676887 0,2.88309 3.17729,6.619345 9.53186,11.208764 7.59019,5.530807 11.38527,12.532612 11.38527,21.005373 0,5.883846 -1.29445,10.414422 -3.88334,13.591707 -2.00051,2.471208 -4.17754,3.706833 -6.5311,3.706833 -1.29443,0 -2.47121,-1.000252 -3.53031,-3.000755 -1.6009,-3.011516 -3.81435,-5.562072 -6.1877,-7.88668 -0.8187,-0.78964 -1.7059,-0.353886 -2.22734,0.290044 l -1.08961,1.317409 m -16.130363,19.874937 -0.573796,0.704298 c -0.379559,0.588434 -0.156535,1.027153 0.12116,1.404869 7.181999,7.23898 14.363979,14.47798 21.545959,21.71696 5.29547,5.3543 8.88464,9.70836 10.76748,13.06216 2.23585,4.11871 3.35379,9.09057 3.35379,14.91559 0,5.6485 -1.91226,10.85571 -5.73676,15.62164 -3.23612,4.05987 -5.91328,6.08979 -8.03147,6.08979 -1.0591,0 -2.11752,-1.31609 -1.58865,-2.55947 0.22739,-0.53457 0.72692,-1.42751 1.14736,-2.11819 0.72978,-1.19885 1.14734,-2.20643 1.14734,-3.08902 0,-2.88309 -1.94166,-6.5311 -5.825,-10.94399 L 104.798,141.38115 61.962581,98.54573 c -1.039375,-0.865789 -2.040686,-0.389302 -2.540177,0.423362 -2.205269,3.449518 -3.52452,7.176178 -3.784062,11.168778 0,5.11896 3.618568,12.03248 10.855726,20.74059 7.237157,8.64927 10.855725,15.53339 10.855725,20.65236 0,4.17754 -1.588643,7.67844 -4.765928,10.50269 -3.177286,2.7654 -5.091177,4.36459 -10.879937,5.56325 0,0 -13.987787,3.16814 -21.986688,-1.12088 -1.377586,-0.65153 -2.662353,-2.30588 -2.599273,-4.28444 0.462379,-1.20853 1.732065,-0.87018 3.570103,-0.21671 8.007798,1.79745 9.213514,-3.88341 9.213514,-8.06095 0,-2.05936 -1.765152,-6.35457 -5.295476,-12.88565 -3.471481,-6.58992 -5.207211,-11.8854 -5.207211,-15.88642 0.384325,-12.09407 8.104175,-22.44736 15.737307,-31.154008 0.734758,-1.207453 0.01483,-2.261316 -1.020819,-3.196434 C 43.628436,80.327048 32.726852,69.449018 23.32787,60.070392 18.032394,54.774937 14.472648,50.42087 12.648653,47.008232 10.530463,42.889517 9.4713679,37.917658 9.4713679,32.092656 c 0,-5.648514 1.8163481,-10.861381 5.5231811,-15.627309 3.177286,-4.059872 6.768762,-6.994137 8.886952,-6.994137 1.117939,0 1.80777,0.858185 1.676908,2.559473 -0.07138,0.929568 -1.698429,2.268158 -2.179364,2.934287 -0.764899,1.17676 -1.147339,2.177012 -1.147339,3.000755 0,2.941933 1.97875,6.595579 5.862092,10.949646 3.000777,3.000776 6.001532,5.97211 9.002288,8.914044 18.015547,17.963249 36.031094,35.926498 54.046621,53.889748 0.796312,0.676189 1.151469,0.449416 1.383983,0.198686 l 0.526116,-0.656766"
       style="font-weight:300;font-size:85.3333px;font-family:'Frank Ruhl Libre';-inkscape-font-specification:'Frank Ruhl Libre, Light';text-align:center;letter-spacing:-34.18px;text-anchor:middle;white-space:pre;fill:#0177a2;fill-opacity:1;stroke-width:21.1819;paint-order:markers stroke fill"
       id="path4413"
       sodipodi:nodetypes="ccccccscsssscscscccccccccscssssccccccscscccsccccccscsscsccccc" />
  </g>
</svg>
