<?xml version="1.0" encoding="UTF-8" standalone="no"?>
<svg
   width="20000.002"
   height="55.595734"
   viewBox="0 0 20000.002 55.595733"
   version="1.1"
   id="svg24"
   sodipodi:docname="hr.svg"
   inkscape:version="1.2.2 (b0a8486541, 2022-12-01)"
   xmlns:inkscape="http://www.inkscape.org/namespaces/inkscape"
   xmlns:sodipodi="http://sodipodi.sourceforge.net/DTD/sodipodi-0.dtd"
   xmlns="http://www.w3.org/2000/svg"
   xmlns:svg="http://www.w3.org/2000/svg"
   xmlns:rdf="http://www.w3.org/1999/02/22-rdf-syntax-ns#"
   xmlns:cc="http://creativecommons.org/ns#"
   xmlns:dc="http://purl.org/dc/elements/1.1/">
  <sodipodi:namedview
     id="namedview26"
     pagecolor="#ffffff"
     bordercolor="#111111"
     borderopacity="1"
     inkscape:showpageshadow="0"
     inkscape:pageopacity="0"
     inkscape:pagecheckerboard="1"
     inkscape:deskcolor="#d1d1d1"
     showgrid="false"
     inkscape:zoom="0.03125"
     inkscape:cx="5488"
     inkscape:cy="-751.99999"
     inkscape:window-width="1680"
     inkscape:window-height="989"
     inkscape:window-x="0"
     inkscape:window-y="0"
     inkscape:window-maximized="1"
     inkscape:current-layer="svg24" />
  <metadata
     id="metadata2">
    <rdf:RDF>
      <cc:Work
         rdf:about="">
        <dc:format>image/svg+xml</dc:format>
        <dc:type
           rdf:resource="http://purl.org/dc/dcmitype/StillImage" />
        <dc:title>Celtic-knot-basic</dc:title>
      </cc:Work>
    </rdf:RDF>
  </metadata>
  <title
     id="title4">One very basic form of Celtic or pseudo-Celtic linear knotwork.  By AnonMoos (public domain)</title>
  <defs
     id="defs8" />
  <g
     id="g877"
     transform="translate(7499.997,0.01634218)">
    <path
       style="color:#000000;fill:#242525;-inkscape-stroke:none"
       d="m 2435.4121,-0.00390625 c -3.9811,-0.11562041 -7.9291,0.62138172 -11.5351,2.11523435 -9.6162,3.9836071 -17.1524,13.4899419 -17.1524,25.6699219 0,12.17998 7.5362,21.686315 17.1524,25.669922 9.6161,3.983607 21.666,2.59198 30.2793,-6.021485 l 13.0976,-13.097656 13.0996,13.097656 c 10.812,10.811852 28.481,10.811852 39.293,0 l 13.0996,-13.097656 13.0977,13.097656 c 8.6132,8.613465 20.6631,10.005092 30.2792,6.021485 9.6162,-3.983607 17.1524,-13.489942 17.1524,-25.669922 0,-12.17998 -7.5362,-21.6863148 -17.1524,-25.6699219 -9.6161,-3.9836071 -21.666,-2.59002718 -30.2792,6.0234375 L 2532.7461,21.232422 2519.6465,8.1347656 c -10.812,-10.8118519 -28.481,-10.8118519 -39.293,0 L 2467.2539,21.232422 2454.1563,8.1347656 c -5.3834,-5.3834154 -12.109,-7.94597116 -18.7442,-8.13867185 z M 2500,9.2285156 c 4.7308,0 9.4613,1.8188084 13.0977,5.4550784 l 13.0976,13.097656 -13.0976,13.097656 c -7.2727,7.27254 -18.9227,7.27254 -26.1954,0 l -13.0976,-13.097656 13.0976,-13.097656 c 3.6364,-3.63627 8.3669,-5.4550784 13.0977,-5.4550784 z m -67.5234,0.091797 c 5.1913,-0.6494846 10.6502,0.8825904 15.1308,5.3632814 l 13.0977,13.097656 -13.0977,13.097656 c -5.9741,5.974254 -13.6855,6.708341 -20.1855,4.015625 -6.5001,-2.692715 -11.4356,-8.665809 -11.4356,-17.113281 0,-8.447472 4.9355,-14.420566 11.4356,-17.113281 1.625,-0.673179 3.3242,-1.1311615 5.0547,-1.3476564 z m 135.0468,0 c 1.7305,0.2164949 3.4317,0.6744774 5.0567,1.3476564 6.5,2.692715 11.4336,8.665809 11.4336,17.113281 0,8.447472 -4.9336,14.420566 -11.4336,17.113281 -6.5001,2.692716 -14.2134,1.958629 -20.1875,-4.015625 l -13.0977,-13.097656 13.0977,-13.097656 c 4.4806,-4.480691 9.9395,-6.012766 15.1308,-5.3632814 z"
       id="use10" />
    <path
       style="color:#000000;fill:#0177a2;-inkscape-stroke:none"
       d="m 2435.3477,1.8320312 c -3.7095,-0.1024255 -7.3894,0.5931988 -10.7618,1.9902344 -8.9929,3.7254284 -16.0078,12.5255074 -16.0078,23.9589844 0,11.433477 7.0149,20.233556 16.0078,23.958984 8.993,3.725429 20.1763,2.464529 28.2618,-5.621093 l 14.4062,-14.408204 14.4082,14.408204 c 10.1042,10.103988 26.5716,10.103988 36.6758,0 l 14.4082,-14.408204 14.4082,14.408204 c 8.0855,8.085622 19.2668,9.346522 28.2598,5.621093 8.9929,-3.725428 16.0078,-12.525507 16.0078,-23.958984 0,-11.433477 -7.0149,-20.233556 -16.0078,-23.9589844 -8.993,-3.72542839 -20.1743,-2.4625751 -28.2598,5.6230469 L 2532.7461,23.853516 2518.3379,9.4453125 c -10.1042,-10.10398867 -26.5716,-10.10398867 -36.6758,0 L 2467.2539,23.851562 2452.8477,9.4453125 c -5.0535,-5.0535137 -11.3176,-7.442572 -17.5,-7.6132813 z M 2500,7.3886719 c 5.2088,0 10.4179,1.9961266 14.4082,5.9863281 l 14.4082,14.40625 -14.4082,14.408203 c -7.9805,7.980403 -20.8359,7.980403 -28.8164,0 L 2471.1836,27.78125 2485.5918,13.375 c 3.9903,-3.9902015 9.1994,-5.9863281 14.4082,-5.9863281 z m -67.7285,0.099609 c 5.723,-0.6965754 11.77,1.0101462 16.6465,5.8867191 l 14.4062,14.40625 -14.4062,14.408203 c -6.502,6.502097 -15.0819,7.368863 -22.2051,4.417969 -7.1233,-2.950894 -12.5781,-9.632198 -12.5781,-18.826172 0,-9.193974 5.4548,-15.873325 12.5781,-18.824219 1.7808,-0.7377235 3.6509,-1.2365582 5.5586,-1.4687501 z m 135.457,0 c 1.9077,0.2321919 3.7778,0.7310266 5.5586,1.4687501 7.1233,2.950894 12.5781,9.630245 12.5781,18.824219 0,9.193974 -5.4548,15.875278 -12.5781,18.826172 -7.1232,2.950894 -15.7031,2.084128 -22.2051,-4.417969 L 2536.6758,27.78125 2551.082,13.375 c 4.8765,-4.8765726 10.9235,-6.5832942 16.6465,-5.8867191 z"
       id="use12" />
    <path
       style="color:#000000;fill:#242525;-inkscape-stroke:none"
       d="m 2467.2539,0.02539063 c -7.1206,-1e-8 -14.2404,2.70329077 -19.6465,8.10937497 l -19.6465,19.6464844 19.6465,19.648437 c 10.8121,10.812169 28.4829,10.812169 39.2949,0 L 2500,34.332031 l 13.0977,13.097656 c 10.812,10.812169 28.4828,10.812169 39.2949,0 L 2572.0391,27.78125 2552.3926,8.1347656 c -10.8121,-10.8121685 -28.4829,-10.8121685 -39.2949,0 L 2500,21.232422 2486.9023,8.1347656 c -5.406,-5.4060842 -12.5278,-8.10937497 -19.6484,-8.10937497 z m 0,9.20312497 c 4.7309,0 9.4633,1.8186994 13.0996,5.4550784 l 13.0977,13.097656 -13.0977,13.097656 c -7.2727,7.272757 -18.9246,7.272757 -26.1972,0 l -13.0977,-13.097656 13.0977,-13.097656 c 3.6363,-3.636379 8.3667,-5.4550784 13.0976,-5.4550784 z m 65.4922,0 c 4.7309,0 9.4613,1.8186994 13.0977,5.4550784 l 13.0976,13.097656 -13.0976,13.097656 c -7.2727,7.272757 -18.9246,7.272757 -26.1973,0 l -13.0977,-13.097656 13.0977,-13.097656 c 3.6363,-3.636379 8.3687,-5.4550784 13.0996,-5.4550784 z"
       id="use14" />
    <path
       style="color:#000000;fill:#0177a2;-inkscape-stroke:none"
       d="m 2467.2539,1.8671875 c -6.6427,0 -13.2838,2.5259824 -18.3359,7.578125 l -18.3379,18.3359375 18.3379,18.337891 c 10.1042,10.104285 26.5696,10.104285 36.6738,0 L 2500,31.710937 l 14.4082,14.408204 c 10.1042,10.104285 26.5696,10.104285 36.6738,0 L 2569.4199,27.78125 2551.082,9.4453125 c -10.1042,-10.10428527 -26.5696,-10.10428527 -36.6738,0 L 2500,23.853516 2485.5918,9.4453125 c -5.0521,-5.0521426 -11.6952,-7.578125 -18.3379,-7.578125 z m 0,5.5214844 c 5.2089,0 10.4179,1.9960082 14.4082,5.9863281 l 14.4082,14.40625 -14.4082,14.408203 c -7.9806,7.98064 -20.8339,7.98064 -28.8144,0 L 2438.4395,27.78125 2452.8477,13.375 c 3.9902,-3.9903199 9.1973,-5.9863281 14.4062,-5.9863281 z m 65.4922,0 c 5.2089,0 10.4179,1.9960082 14.4082,5.9863281 l 14.4062,14.40625 -14.4062,14.408203 c -7.9806,7.98064 -20.8358,7.98064 -28.8164,0 L 2503.9297,27.78125 2518.3379,13.375 c 3.9903,-3.9903199 9.1993,-5.9863281 14.4082,-5.9863281 z"
       id="use16" />
    <path
       style="color:#000000;fill:#242525;-inkscape-stroke:none"
       d="m 2499.5156,0 c -7.1984,0.12576266 -14.0713,3.0439704 -19.1621,8.1347656 l -6.9472,6.9472654 6.5488,6.548828 6.9472,-6.947265 c 3.3958,-3.395738 7.9719,-5.3379872 12.7735,-5.4218752 z m 65.4903,0 c -7.1986,0.12560802 -14.0712,3.0438276 -19.1621,8.1347656 l -6.9473,6.9472654 6.5488,6.548828 6.9473,-6.947265 c 3.3958,-3.395834 7.9737,-5.3380903 12.7754,-5.4218752 z m -97.9493,21.033203 -6.5488,6.550781 6.9453,6.945313 6.5489,-6.548828 z m 32.7442,0 -6.5488,6.550781 6.9472,6.945313 6.5488,-6.548828 z m 32.7461,0 -6.5489,6.550781 6.9454,6.945313 6.5488,-6.548828 z m -77.9922,12.900391 -6.9473,6.945312 c -3.3958,3.395853 -7.9736,5.340064 -12.7754,5.423828 l 0.1621,9.259766 c 7.1987,-0.125577 14.0712,-3.041846 19.1622,-8.132813 l 6.9472,-6.947265 z m 65.4902,0 -6.9472,6.945312 c -3.3958,3.395738 -7.9719,5.33994 -12.7735,5.423828 l 0.1602,9.259766 c 7.1984,-0.125763 14.0713,-3.042017 19.1621,-8.132813 l 6.9473,-6.947265 z"
       id="path18" />
    <path
       style="color:#000000;fill:#0177a2;-inkscape-stroke:none"
       d="m 2500,1.8496094 c -6.8767,1.013e-4 -13.4753,2.7330667 -18.3379,7.5957031 l -7.1777,7.1777345 3.9297,3.929687 7.1777,-7.177734 c 3.8219,-3.8219913 9.0031,-5.9686704 14.4082,-5.96875 z m 65.4902,0 c -6.8767,1.013e-4 -13.4734,2.7330667 -18.3359,7.5957031 l -7.1797,7.1777345 3.9297,3.929687 7.1777,-7.177734 c 3.8219,-3.8219913 9.0032,-5.9686704 14.4082,-5.96875 z m -99.9746,20.2636716 -3.9297,3.927735 7.4082,7.410156 3.9297,-3.929688 z m 32.7442,0 -3.9297,3.927735 7.4101,7.410156 3.9297,-3.929688 z m 32.7461,0 -3.9297,3.927735 7.4082,7.410156 3.9297,-3.929688 z m -74.9102,12.898438 -7.1777,7.177734 c -3.822,3.822013 -9.0031,5.968694 -14.4082,5.96875 v 5.556641 c 6.8767,-7.2e-5 13.4753,-2.733039 18.3379,-7.595703 l 7.1777,-7.177735 z m 65.4902,0 -7.1777,7.177734 c -3.8219,3.821992 -9.0031,5.96867 -14.4082,5.96875 v 5.556641 c 6.8767,-1.02e-4 13.4753,-2.733067 18.3379,-7.595703 l 7.1777,-7.177735 z"
       id="path20" />
    <path
       id="rect4171"
       style="fill:#0177a2;stroke-width:4.07376;paint-order:markers stroke fill"
       d="m -7499.997,25.006855 h 9892.1471 v 5.55 H -7499.997 Z"
       sodipodi:nodetypes="ccccc" />
    <path
       id="rect4171-3"
       style="fill:#0177a2;stroke-width:4.07377;paint-order:markers stroke fill"
       d="m 2607.8484,25.006855 h 9892.1566 v 5.55 H 2607.8484 Z"
       sodipodi:nodetypes="ccccc" />
  </g>
</svg>
