<?xml version="1.0" encoding="UTF-8" standalone="no"?>
<svg xmlns="http://www.w3.org/2000/svg"
   xmlns:dc="http://purl.org/dc/elements/1.1/"
   xmlns:cc="http://web.resource.org/cc/"
   xmlns:rdf="http://www.w3.org/1999/02/22-rdf-syntax-ns#"
   xmlns:xlink="http://www.w3.org/1999/xlink"
   width="800" height="258" viewBox="0 0 800 258">
  <metadata><rdf:RDF><cc:Work rdf:about="">
    <dc:format>image/svg+xml</dc:format>
    <dc:type rdf:resource="http://purl.org/dc/dcmitype/StillImage"/>
    <dc:title>Celtic-knot-basic</dc:title>
  </cc:Work></rdf:RDF></metadata>
  <title>One very basic form of Celtic or pseudo-Celtic linear knotwork.  By AnonMoos (public domain)</title>
  <defs>
    <path id="ThreeLoops"
       d="M241.355,431.355 A50,50 0 0,1 170.645,431.355 L99.934,360.645 A50,50 0 1,0 99.934,431.355 L170.645,360.645 A50,50 0 0,1 241.355,360.645 L312.066,431.355 A50,50 0 1,0 312.066,360.645Z" />
    <path id="FigureEight"
       d="M170.645,431.355 A50,50 0 0,1 99.934,431.355 L64.579,396 L99.934,360.645 A50,50 0 0,1 170.645,360.645 L241.355,431.355 A50,50 0 0,0 312.066,431.355 L347.421,396 L312.066,360.645 A50,50 0 0,0 241.355,360.645Z" />
  </defs>
  <g transform="scale(1.92,-1.92)translate(2,-463.5)" stroke-width="20" stroke="rgb(0,0,0)" fill="none">
    <use xlink:href="#ThreeLoops"/>
    <use stroke-width="12" stroke="rgb(255,255,255)" xlink:href="#ThreeLoops"/>
    <use xlink:href="#FigureEight"/>
    <use stroke-width="12" stroke="rgb(255,255,255)" xlink:href="#FigureEight"/>
    <path
       d="M205.127,445.992 A50,50 0 0,1 170.645,431.355 L155.645,416.355
M198.5,403.5 L213.5,388.5
M206.873,346.008 A50,50 0 0,1 241.355,360.645 L256.355,375.645
M127.79,403.5 L142.79,388.5
M269.21,403.5 L284.21,388.5
M65.451,346.008 A50,50 0 0,1 99.934,360.645 L114.934,375.645
M346.549,445.992 A50,50 0 0,1 312.066,431.355 L297.066,416.355"/>
    <path stroke-width="12" stroke="rgb(255,255,255)" d="M206,446 A50,50 0 0,1 170.645,431.355 L155.145,415.855
M198,404 L214,388
M206,346 A50,50 0 0,1 241.355,360.645 L256.855,376.145
M127.29,404 L143.29,388
M268.71,404 L284.71,388
M64.579,346 A50,50 0 0,1 99.934,360.645 L115.434,376.145
M347.421,446 A50,50 0 0,1 312.066,431.355 L296.566,415.855"/>
  </g>
</svg>