<?xml version="1.0" encoding="UTF-8" standalone="no"?>
<!-- Created with Inkscape (http://www.inkscape.org/) -->

<svg
   width="263.44379"
   height="194.21405"
   viewBox="0 0 263.44379 194.21405"
   version="1.1"
   id="svg5"
   inkscape:version="1.2.2 (b0a8486541, 2022-12-01)"
   sodipodi:docname="Ethan Alan Initials Logo (leaning alt).svg"
   xmlns:inkscape="http://www.inkscape.org/namespaces/inkscape"
   xmlns:sodipodi="http://sodipodi.sourceforge.net/DTD/sodipodi-0.dtd"
   xmlns="http://www.w3.org/2000/svg"
   xmlns:svg="http://www.w3.org/2000/svg">
  <sodipodi:namedview
     id="namedview7"
     pagecolor="#ffffff"
     bordercolor="#111111"
     borderopacity="1"
     inkscape:showpageshadow="0"
     inkscape:pageopacity="0"
     inkscape:pagecheckerboard="1"
     inkscape:deskcolor="#d1d1d1"
     inkscape:document-units="mm"
     showgrid="false"
     showguides="false"
     inkscape:zoom="2.0000001"
     inkscape:cx="89.499998"
     inkscape:cy="81.999998"
     inkscape:window-width="1366"
     inkscape:window-height="707"
     inkscape:window-x="0"
     inkscape:window-y="0"
     inkscape:window-maximized="1"
     inkscape:current-layer="layer1" />
  <defs
     id="defs2">
    <rect
       x="241.11237"
       y="418.3663"
       width="219.25458"
       height="166.81087"
       id="rect242" />
    <rect
       x="181.23186"
       y="368.88733"
       width="441.03793"
       height="350.75418"
       id="rect236" />
  </defs>
  <g
     inkscape:label="Layer 1"
     inkscape:groupmode="layer"
     id="layer1"
     transform="translate(31.789938,-5.114128)">
    <rect
       style="fill:#242525;fill-opacity:1;stroke-width:3.17732;paint-order:markers stroke fill"
       id="rect4534"
       width="263.444"
       height="194.214"
       x="-31.790045"
       y="5.1141515" />
    <text
       xml:space="preserve"
       transform="scale(0.26458333)"
       id="text234"
       style="font-weight:300;font-size:13.3333px;line-height:0;font-family:'Frank Ruhl Libre';-inkscape-font-specification:'Frank Ruhl Libre, Light';text-align:center;white-space:pre;shape-inside:url(#rect236);display:inline;fill:#ff0000;stroke-width:10;paint-order:markers stroke fill" />
    <g
       aria-label="אא"
       transform="matrix(-1.6904148,1.6177664,-1.6177664,-1.6904148,1418.6269,300.92598)"
       id="text240"
       style="font-weight:300;font-size:85.3333px;line-height:1;font-family:'Frank Ruhl Libre';-inkscape-font-specification:'Frank Ruhl Libre, Light';text-align:center;letter-spacing:-34.18px;text-anchor:middle;white-space:pre;shape-inside:url(#rect242);fill:#ff0000;stroke-width:10;paint-order:markers stroke fill">
      <path
         d="m 345.88207,446.25736 -2.04167,-2.08334 c -2.5,-2.49999 -4.18055,-4.55555 -5.04166,-6.16666 -1,-1.94445 -1.5,-4.29167 -1.5,-7.04166 0,-2.66667 0.875,-5.125 2.625,-7.375 1.49999,-1.91667 2.74999,-2.875 3.74999,-2.875 0.52778,0 0.79167,0.40278 0.79167,1.20833 0,0.0833 -0.19444,0.40278 -0.58333,0.95834 -0.36111,0.55555 -0.54167,1.02777 -0.54167,1.41666 0,1.38889 0.91667,3.11111 2.75,5.16667 1.41667,1.41667 2.83333,2.81944 4.25,4.20833 3.927,3.95063 7.89603,7.85964 11.81109,11.82211 0.24971,0.24315 0.97995,0.25153 1.17242,-0.0169 2.47757,-3.08114 4.91923,-6.11748 7.3854,-9.18447 0.18499,-0.26262 0.15112,-0.90599 -0.24657,-1.19107 -1.36942,-1.07413 -2.52949,-2.31906 -3.38607,-3.79623 -0.47223,-0.97222 -0.70834,-2.2361 -0.70834,-3.79166 0,-2.69444 0.98611,-5.08333 2.95834,-7.16667 1.58333,-1.72222 2.93055,-2.58333 4.04166,-2.58333 0.5,0 0.75,0.26389 0.75,0.79167 0,0.11111 -0.0694,0.23611 -0.20833,0.375 -0.13889,0.13889 -0.20833,0.40278 -0.20833,0.79166 0,1.36112 1.49999,3.12501 4.49999,5.29167 3.58333,2.61111 5.375,5.91666 5.375,9.91666 0,2.77778 -0.61111,4.91666 -1.83333,6.41666 -0.94445,1.16667 -1.97223,1.75 -3.08333,1.75 -0.61112,0 -1.16667,-0.47222 -1.66667,-1.41666 -0.7558,-1.42174 -1.80077,-2.62586 -2.92122,-3.7233 -0.25925,-0.23757 -0.80098,-0.15146 -1.08052,0.18632 -2.53596,3.13293 -5.07183,6.26593 -7.60779,9.39885 -0.23282,0.27176 -0.19724,1.06417 0.0363,1.2462 6.36875,6.56646 13.43156,13.87137 19.80031,20.43782 2.5,2.52777 4.19444,4.58333 5.08333,6.16666 1.05555,1.94445 1.58333,4.29167 1.58333,7.04167 0,2.66666 -0.90278,5.12499 -2.70833,7.37499 -1.52778,1.91667 -3.41274,3.30619 -4.41274,3.30619 -0.5,0 -0.99173,-0.43991 -0.75,-1.20833 0.17998,-0.57213 0.87921,-1.01671 1.16274,-1.43119 0.3741,-0.54689 0.54167,-1.04166 0.54167,-1.45833 0,-1.36111 -0.91667,-3.08334 -2.75,-5.16667 l -4.25,-4.25 -30.75498,-31.30433 m -2.92404,6.56306 c -0.9759,2.67216 -1.75737,5.27834 -1.75737,6.16723 0,2.41667 2.97582,4.74109 6.39248,8.8522 3.41667,4.08333 5.46238,6.34145 5.46238,8.75812 0,1.97222 -0.7793,4.1543 -2.2793,5.48763 -1.5,1.30555 -2.94097,1.52827 -5.5,1.95833 0,0 -6.84217,0.92045 -10.43221,-0.68959 -0.51934,-0.25042 -1.41553,-0.89329 -1.27636,-1.97085 0.22009,-0.88049 1.03694,-0.29131 1.73469,-0.15415 2.7758,0.41211 4.79485,-1.53415 4.79485,-3.50637 0,-0.97223 -0.83333,-3 -2.5,-6.08333 -1.63889,-3.11111 -3.40661,-6.59521 -3.40661,-8.4841 0,-2.18055 1.08259,-5.46413 2.82491,-8.92825"
         style="direction:rtl;fill:#ff5100"
         id="path3645"
         sodipodi:nodetypes="cccscsscscccccccscsssscscscccccccscssssccccscscscccscsc" />
      <path
         d="m 345.86866,446.25345 7.62994,-9.4279 m 0,0 0.3837,-0.4761 c 0.19047,-0.28969 0.12467,-0.6895 -0.35523,-1.05489 -1.36942,-1.07413 -2.52948,-2.31906 -3.38606,-3.79622 -0.47222,-0.97222 -0.70834,-2.23611 -0.70834,-3.79166 0,-2.69445 0.98611,-5.08334 2.95833,-7.16667 1.58334,-1.72222 2.93056,-2.58333 4.04167,-2.58333 0.5,0 0.75,0.26389 0.75,0.79167 0,0.1111 -0.0694,0.2361 -0.20833,0.375 -0.13889,0.13888 -0.20834,0.40277 -0.20834,0.79166 0,1.36111 1.5,3.125 4.5,5.29167 3.58334,2.6111 5.375,5.91666 5.375,9.91666 0,2.77777 -0.61111,4.91666 -1.83333,6.41666 -0.94444,1.16666 -1.97222,1.75 -3.08334,1.75 -0.6111,0 -1.16666,-0.47222 -1.66666,-1.41666 -0.75579,-1.42174 -1.80076,-2.62586 -2.92122,-3.72331 -0.38651,-0.37279 -0.80536,-0.16707 -1.05153,0.13693 l -0.51441,0.62195 m -7.61516,9.38298 -0.27089,0.3325 c -0.17919,0.2778 -0.0739,0.48492 0.0572,0.66324 3.39063,3.41753 6.78125,6.83507 10.17187,10.2526 2.5,2.52777 4.19445,4.58333 5.08334,6.16666 1.05555,1.94445 1.58333,4.29167 1.58333,7.04167 0,2.66666 -0.90278,5.12499 -2.70833,7.37499 -1.52778,1.91667 -2.79167,2.875 -3.79167,2.875 -0.5,0 -0.75,-0.40278 -0.75,-1.20833 0,-0.11111 0.18056,-0.44445 0.54167,-1 0.36111,-0.55555 0.54166,-1.04166 0.54166,-1.45833 0,-1.36111 -0.91666,-3.08334 -2.74999,-5.16667 l -4.25,-4.25 -20.22265,-20.22265 c -0.49069,-0.40874 -0.96341,-0.18379 -1.19922,0.19987 -1.04111,1.62852 -1.66393,3.38788 -1.78646,5.27279 0,2.41667 1.70833,5.68055 5.125,9.79166 3.41667,4.08333 5.125,7.33333 5.125,9.75 0,1.97222 -0.75,3.625 -2.25,4.95833 -1.5,1.30555 -2.40355,2.06053 -5.13643,2.62642 0,0 -6.60365,1.49568 -10.37994,-0.52917 -0.65036,-0.30759 -1.2569,-1.08861 -1.22712,-2.02269 0.21829,-0.57055 0.81771,-0.41081 1.68545,-0.10231 3.78049,0.84858 4.34971,-1.83336 4.34971,-3.80558 0,-0.97223 -0.83333,-3 -2.5,-6.08333 -1.63889,-3.11111 -2.45833,-5.61111 -2.45833,-7.5 0.18144,-5.70962 3.82599,-10.59742 7.4296,-14.70784 0.34688,-0.57004 0.007,-1.06757 -0.48193,-1.50904 -4.9509,-4.94017 -10.09755,-10.0757 -14.53482,-14.50336 -2.5,-2.49999 -4.18056,-4.55555 -5.04167,-6.16666 -1,-1.94445 -1.5,-4.29167 -1.5,-7.04166 0,-2.66667 0.8575,-5.12767 2.6075,-7.37767 1.5,-1.91667 3.19554,-3.30194 4.19554,-3.30194 0.52778,0 0.85345,0.40515 0.79167,1.20833 -0.0337,0.43885 -0.80183,1.0708 -1.02888,1.38528 -0.36111,0.55555 -0.54166,1.02777 -0.54166,1.41666 0,1.38889 0.93417,3.11378 2.7675,5.16934 1.41667,1.41667 2.83333,2.81944 4.24999,4.20833 8.50516,8.48047 17.01032,16.96094 25.51547,25.44141 0.37594,0.31923 0.54361,0.21217 0.65338,0.0938 l 0.24838,-0.31006"
         style="fill:#0177a2"
         id="path3647"
         sodipodi:nodetypes="ccccccscsssscscscccccccccscssssccccccscscccsccccccscsscsccccc" />
    </g>
  </g>
</svg>
