<?xml version="1.0" encoding="UTF-8" standalone="no"?>
<svg
   viewBox="0 0 373.71 200"
   version="1.1"
   id="svg21"
   sodipodi:docname="HTTP_logo_grayscale.svg"
   inkscape:version="1.2.2 (b0a8486541, 2022-12-01)"
   xmlns:inkscape="http://www.inkscape.org/namespaces/inkscape"
   xmlns:sodipodi="http://sodipodi.sourceforge.net/DTD/sodipodi-0.dtd"
   xmlns="http://www.w3.org/2000/svg"
   xmlns:svg="http://www.w3.org/2000/svg"
   xmlns:rdf="http://www.w3.org/1999/02/22-rdf-syntax-ns#"
   xmlns:cc="http://creativecommons.org/ns#"
   xmlns:dc="http://purl.org/dc/elements/1.1/">
  <sodipodi:namedview
     id="namedview23"
     pagecolor="#ffffff"
     bordercolor="#000000"
     borderopacity="0.25"
     inkscape:showpageshadow="2"
     inkscape:pageopacity="0.0"
     inkscape:pagecheckerboard="0"
     inkscape:deskcolor="#d1d1d1"
     showgrid="false"
     inkscape:zoom="2.35"
     inkscape:cx="187.44681"
     inkscape:cy="100"
     inkscape:window-width="1366"
     inkscape:window-height="699"
     inkscape:window-x="0"
     inkscape:window-y="0"
     inkscape:window-maximized="1"
     inkscape:current-layer="svg21" />
  <defs
     id="defs4">
    <style
       type="text/css"
       id="style2">.cls-1{fill:#008ec7;}.cls-2{fill:#005b9b;}.cls-3{fill:#fff;}</style>
    <filter
       style="color-interpolation-filters:sRGB;"
       inkscape:label="Greyscale"
       id="filter131"
       x="0"
       y="0"
       width="1"
       height="1">
      <feColorMatrix
         values="0.21 0.72 0.072 0 0 0.21 0.72 0.072 0 0 0.21 0.72 0.072 0 0 0 0 0 1 0 "
         id="feColorMatrix129" />
    </filter>
  </defs>
  <title
     id="title6">IETF-Badge-HTTP</title>
  <g
     id="Layer_2"
     style="filter:url(#filter131)">
    <path
       class="cls-1"
       d="M326,0H47.73L0,100,47.73,200H326l47.73-100ZM310.05,183.36H58.22L18.43,100,58.22,16.64H310.05L349.84,100Z"
       id="path8" />
    <polygon
       class="cls-2"
       points="349.84 100.01 310.05 183.37 58.22 183.37 18.43 100.01 58.22 16.64 310.05 16.64 349.84 100.01"
       id="polygon10" />
    <path
       class="cls-3"
       d="M128.05,71.89v59.53H114.27V107h-27v24.41H73.46V71.89H87.23V95.36h27V71.89Z"
       id="path12" />
    <path
       class="cls-3"
       d="M154.5,83.12H135.45V71.89h51.87V83.12h-19v48.3H154.5Z"
       id="path14" />
    <path
       class="cls-3"
       d="M207.9,83.12H188.85V71.89h51.87V83.12H221.67v48.3H207.9Z"
       id="path16" />
    <path
       class="cls-3"
       d="M287.62,74.53a20.45,20.45,0,0,1,9,7.48,20.67,20.67,0,0,1,3.14,11.48,20.73,20.73,0,0,1-3.14,11.44,20.06,20.06,0,0,1-9,7.48A33.55,33.55,0,0,1,273.88,115h-12v16.42H248.12V71.89h25.76A33.05,33.05,0,0,1,287.62,74.53Zm-5.06,26.57a9.33,9.33,0,0,0,3.23-7.61c0-3.34-1.08-5.91-3.23-7.69s-5.3-2.68-9.44-2.68H261.89v20.66h11.23Q279.33,103.78,282.56,101.1Z"
       id="path18" />
  </g>
  <metadata
     id="metadata149">
    <rdf:RDF>
      <cc:Work
         rdf:about="">
        <dc:title>IETF-Badge-HTTP</dc:title>
      </cc:Work>
    </rdf:RDF>
  </metadata>
</svg>
